<svg xmlns="http://www.w3.org/2000/svg" xmlns:xlink="http://www.w3.org/1999/xlink" contentStyleType="text/css" height="607px" preserveAspectRatio="none" style="width:1189px;height:607px;background:#FFFFFF;" version="1.1" viewBox="0 0 1189 607" width="1189px" zoomAndPan="magnify"><title>YAML Structure</title><defs/><g><text fill="#000000" font-family="sans-serif" font-size="14" font-weight="bold" lengthAdjust="spacing" textLength="123.7031" x="526.0818" y="22.9951">YAML Structure</text><!--cluster framework--><g id="cluster_framework"><path d="M8.5,43.2969 L94.792,43.2969 A3.75,3.75 0 0 1 97.292,45.7969 L104.292,65.5938 L529.5,65.5938 A2.5,2.5 0 0 1 532,68.0938 L532,597.7969 A2.5,2.5 0 0 1 529.5,600.2969 L8.5,600.2969 A2.5,2.5 0 0 1 6,597.7969 L6,45.7969 A2.5,2.5 0 0 1 8.5,43.2969 " fill="none" style="stroke:#000000;stroke-width:1.5;"/><line style="stroke:#000000;stroke-width:1.5;" x1="6" x2="104.292" y1="65.5938" y2="65.5938"/><text fill="#000000" font-family="sans-serif" font-size="14" font-weight="bold" lengthAdjust="spacing" textLength="85.292" x="10" y="58.292">framework</text></g><!--cluster control_group--><g id="cluster_control_group"><path d="M558.5,267.2969 L668.9297,267.2969 A3.75,3.75 0 0 1 671.4297,269.7969 L678.4297,289.5938 L945.5,289.5938 A2.5,2.5 0 0 1 948,292.0938 L948,457.7969 A2.5,2.5 0 0 1 945.5,460.2969 L558.5,460.2969 A2.5,2.5 0 0 1 556,457.7969 L556,269.7969 A2.5,2.5 0 0 1 558.5,267.2969 " fill="none" style="stroke:#000000;stroke-width:1.5;"/><line style="stroke:#000000;stroke-width:1.5;" x1="556" x2="678.4297" y1="289.5938" y2="289.5938"/><text fill="#000000" font-family="sans-serif" font-size="14" font-weight="bold" lengthAdjust="spacing" textLength="109.4297" x="560" y="282.292">control_group</text></g><g id="elem_Framework"><rect fill="#F1F1F1" height="126.0781" style="stroke:#181818;stroke-width:0.5;" width="271.4922" x="244.5" y="78.2969"/><text fill="#000000" font-family="sans-serif" font-size="14" lengthAdjust="spacing" textLength="78.5176" x="340.9873" y="93.292">Framework</text><line style="stroke:#181818;stroke-width:0.5;" x1="245.5" x2="514.9922" y1="98.5938" y2="98.5938"/><text fill="#000000" font-family="sans-serif" font-size="14" lengthAdjust="spacing" textLength="68.1748" x="250.5" y="115.5889">id : String</text><text fill="#000000" font-family="sans-serif" font-size="14" lengthAdjust="spacing" textLength="82.7695" x="250.5" y="131.8857">title : String</text><text fill="#000000" font-family="sans-serif" font-size="14" lengthAdjust="spacing" textLength="133.2393" x="250.5" y="148.1826">description : String</text><text fill="#000000" font-family="sans-serif" font-size="14" lengthAdjust="spacing" textLength="146.583" x="250.5" y="164.4795">section_code : String</text><text fill="#000000" font-family="sans-serif" font-size="14" lengthAdjust="spacing" textLength="147.7656" x="250.5" y="180.7764">metadata : Metadata</text><text fill="#000000" font-family="sans-serif" font-size="14" lengthAdjust="spacing" textLength="259.4922" x="250.5" y="197.0732">control_groups : List&lt;ControlGroup&gt;</text></g><g id="elem_Metadata"><rect fill="#F1F1F1" height="60.8906" style="stroke:#181818;stroke-width:0.5;" width="140.6182" x="318.5" y="342.7969"/><text fill="#000000" font-family="sans-serif" font-size="14" lengthAdjust="spacing" textLength="66.2949" x="355.6616" y="357.792">Metadata</text><line style="stroke:#181818;stroke-width:0.5;" x1="319.5" x2="458.1182" y1="363.0938" y2="363.0938"/><text fill="#000000" font-family="sans-serif" font-size="14" lengthAdjust="spacing" textLength="128.6182" x="324.5" y="380.0889">defaults : Defaults</text><text fill="#000000" font-family="sans-serif" font-size="14" lengthAdjust="spacing" textLength="77.1777" x="324.5" y="396.3857">tags : Tags</text></g><g id="elem_Defaults"><rect fill="#F1F1F1" height="77.1875" style="stroke:#181818;stroke-width:0.5;" width="215.3486" x="22.5" y="507.2969"/><text fill="#000000" font-family="sans-serif" font-size="14" lengthAdjust="spacing" textLength="58.4473" x="100.9507" y="522.292">Defaults</text><line style="stroke:#181818;stroke-width:0.5;" x1="23.5" x2="236.8486" y1="527.5938" y2="527.5938"/><text fill="#000000" font-family="sans-serif" font-size="14" lengthAdjust="spacing" textLength="153.6309" x="28.5" y="544.5889">auto_assign : Boolean</text><text fill="#000000" font-family="sans-serif" font-size="14" lengthAdjust="spacing" textLength="126.6494" x="28.5" y="560.8857">enabled : Boolean</text><text fill="#000000" font-family="sans-serif" font-size="14" lengthAdjust="spacing" textLength="203.3486" x="28.5" y="577.1826">tracks_drift_events : Boolean</text></g><g id="elem_Tags"><rect fill="#F1F1F1" height="60.8906" style="stroke:#181818;stroke-width:0.5;" width="242.8428" x="272.5" y="515.2969"/><text fill="#000000" font-family="sans-serif" font-size="14" lengthAdjust="spacing" textLength="33.3115" x="377.2656" y="530.292">Tags</text><line style="stroke:#181818;stroke-width:0.5;" x1="273.5" x2="514.3428" y1="535.5938" y2="535.5938"/><text fill="#000000" font-family="sans-serif" font-size="14" lengthAdjust="spacing" textLength="230.8428" x="278.5" y="552.5889">baseline_category : List&lt;String&gt;</text><text fill="#000000" font-family="sans-serif" font-size="14" lengthAdjust="spacing" textLength="134.6064" x="278.5" y="568.8857">type : List&lt;String&gt;</text></g><g id="elem_ControlGroup"><rect fill="#F1F1F1" height="142.375" style="stroke:#181818;stroke-width:0.5;" width="359.7236" x="572" y="302.2969"/><text fill="#000000" font-family="sans-serif" font-size="14" lengthAdjust="spacing" textLength="93.8438" x="704.9399" y="317.292">ControlGroup</text><line style="stroke:#181818;stroke-width:0.5;" x1="573" x2="930.7236" y1="322.5938" y2="322.5938"/><text fill="#000000" font-family="sans-serif" font-size="14" lengthAdjust="spacing" textLength="68.1748" x="578" y="339.5889">id : String</text><text fill="#000000" font-family="sans-serif" font-size="14" lengthAdjust="spacing" textLength="82.7695" x="578" y="355.8857">title : String</text><text fill="#000000" font-family="sans-serif" font-size="14" lengthAdjust="spacing" textLength="133.2393" x="578" y="372.1826">description : String</text><text fill="#000000" font-family="sans-serif" font-size="14" lengthAdjust="spacing" textLength="146.583" x="578" y="388.4795">section_code : String</text><text fill="#000000" font-family="sans-serif" font-size="14" lengthAdjust="spacing" textLength="147.7656" x="578" y="404.7764">metadata : Metadata</text><text fill="#000000" font-family="sans-serif" font-size="14" lengthAdjust="spacing" textLength="347.7236" x="578" y="421.0732">control_groups : List&lt;ControlGroup&gt;  -- recursive</text><text fill="#000000" font-family="sans-serif" font-size="14" lengthAdjust="spacing" textLength="159.4619" x="578" y="437.3701">controls : List&lt;String&gt;</text></g><g id="elem_GMN14"><path d="M967,345.7969 L967,369.2969 L932.11,373.2969 L967,377.2969 L967,401.1953 A0,0 0 0 0 967,401.1953 L1182.8667,401.1953 A0,0 0 0 0 1182.8667,401.1953 L1182.8667,355.7969 L1172.8667,345.7969 L967,345.7969 A0,0 0 0 0 967,345.7969 " fill="#FEFFDD" style="stroke:#181818;stroke-width:0.5;"/><path d="M1172.8667,345.7969 L1172.8667,355.7969 L1182.8667,355.7969 L1172.8667,345.7969 " fill="#FEFFDD" style="stroke:#181818;stroke-width:0.5;"/><text fill="#000000" font-family="sans-serif" font-size="13" lengthAdjust="spacing" textLength="194.8667" x="973" y="362.8638">Each Control Group can have:</text><text fill="#000000" font-family="sans-serif" font-size="13" lengthAdjust="spacing" textLength="138.1123" x="977.1323" y="377.9966">- child control groups</text><text fill="#000000" font-family="sans-serif" font-size="13" lengthAdjust="spacing" textLength="159.1992" x="977.1323" y="393.1294">- controls (list of strings)</text></g><!--link Framework to Metadata--><g id="link_Framework_Metadata"><path codeLine="42" d="M382.44,204.5369 C384.19,249.3769 386.2454,301.8715 387.6054,336.6215 " fill="none" id="Framework-to-Metadata" style="stroke:#181818;stroke-width:1;"/><polygon fill="#181818" points="387.84,342.6169,391.485,333.4673,387.6445,337.6207,383.4911,333.7802,387.84,342.6169" style="stroke:#181818;stroke-width:1;"/></g><!--link Framework to ControlGroup--><g id="link_Framework_ControlGroup"><path codeLine="43" d="M480.67,204.5369 C529.41,234.6669 583.0163,267.8222 633.3463,298.9322 " fill="none" id="Framework-to-ControlGroup" style="stroke:#181818;stroke-width:1;"/><polygon fill="#181818" points="638.45,302.0869,632.8976,293.9523,634.1969,299.458,628.6913,300.7573,638.45,302.0869" style="stroke:#181818;stroke-width:1;"/><text fill="#000000" font-family="sans-serif" font-size="13" lengthAdjust="spacing" textLength="75.7402" x="555" y="247.3638">can contain</text></g><!--link Metadata to Defaults--><g id="link_Metadata_Defaults"><path codeLine="44" d="M344.18,403.7969 C300.75,432.3969 239.6915,472.5876 192.4215,503.7076 " fill="none" id="Metadata-to-Defaults" style="stroke:#181818;stroke-width:1;"/><polygon fill="#181818" points="187.41,507.0069,197.1267,505.3989,191.5862,504.2575,192.7277,498.717,187.41,507.0069" style="stroke:#181818;stroke-width:1;"/></g><!--link Metadata to Tags--><g id="link_Metadata_Tags"><path codeLine="45" d="M389.87,403.9969 C390.79,435.1969 392.045,477.9794 392.955,509.1594 " fill="none" id="Metadata-to-Tags" style="stroke:#181818;stroke-width:1;"/><polygon fill="#181818" points="393.13,515.1569,396.8657,506.044,392.9841,510.159,388.8691,506.2774,393.13,515.1569" style="stroke:#181818;stroke-width:1;"/></g><!--link ControlGroup to Metadata--><g id="link_ControlGroup_Metadata"><path codeLine="46" d="M571.79,373.2969 C534.37,373.2969 502.96,373.2969 465.54,373.2969 " fill="none" id="ControlGroup-to-Metadata" style="stroke:#181818;stroke-width:1;"/><polygon fill="#181818" points="459.54,373.2969,468.54,377.2969,464.54,373.2969,468.54,369.2969,459.54,373.2969" style="stroke:#181818;stroke-width:1;"/></g><!--SRC=[pLAxRiCm3Dpr5KIcTl0F14M0lfTaQfTE1YFHZXf7CYGwHL3atol9TcobwDx9yf6yuv5apGt1n_rc3M_iEicT8o5Qb7ki2HQLmmDzMRTVmBS0iDjFaWml8vf00ArW6SkrgTC_9z8CKkIbqorhQ_A03uG1BALLLoK7ObJ86D3Dy4ouj8QTRShQsQxr8RhMdkyUU_GrWgkGTnPJlsFvqAwY2hk6O-dJyEpRnZfYx-5pHJ2c3GJOiItHUrr7Cm_MDeGcHSZWjY5rXR8By_IbShhYaevaalQKCPUAweFC5Zqrsb0faQcsxZHwxOUqwhbFBVt6p-8yss8siMoJywdzrsK250Kuaftp-aZpAl-7yUa-Ys8rwULmPdqPXeGcyQ8s2t6vc9XvEP8CJMUIaMHYmbWcSBhUCTWgKmjjFgFSZHZqrL5_XqTQHeS5o9rkr6WK-l4CaT7yJHEyHtAVxFjRGKP1rFq1]--></g></svg>