<svg xmlns="http://www.w3.org/2000/svg" xmlns:xlink="http://www.w3.org/1999/xlink" contentStyleType="text/css" height="400px" preserveAspectRatio="none" style="width:662px;height:400px;background:#FFFFFF;" version="1.1" viewBox="0 0 662 400" width="662px" zoomAndPan="magnify"><defs/><g><!--entity FRAMEWORK--><g id="elem_FRAMEWORK"><rect fill="#EAEAEA" height="39.2969" rx="2.5" ry="2.5" style="stroke:#000000;stroke-width:0.5;" width="195.375" x="322" y="7"/><polygon fill="#EAEAEA" points="500.375,12,500.375,26,512.375,26,512.375,18,506.375,12,500.375,12" style="stroke:#000000;stroke-width:0.5;"/><line style="stroke:#000000;stroke-width:0.5;" x1="506.375" x2="506.375" y1="12" y2="18"/><line style="stroke:#000000;stroke-width:0.5;" x1="512.375" x2="506.375" y1="18" y2="18"/><text fill="#000000" font-family="sans-serif" font-size="14" lengthAdjust="spacing" textLength="165.375" x="332" y="32.9951">Compliance Framework</text></g><!--entity CG1--><g id="elem_CG1"><rect fill="#EAEAEA" height="39.2969" rx="2.5" ry="2.5" style="stroke:#000000;stroke-width:0.5;" width="141.6514" x="260.5" y="123"/><polygon fill="#EAEAEA" points="385.1514,128,385.1514,142,397.1514,142,397.1514,134,391.1514,128,385.1514,128" style="stroke:#000000;stroke-width:0.5;"/><line style="stroke:#000000;stroke-width:0.5;" x1="391.1514" x2="391.1514" y1="128" y2="134"/><line style="stroke:#000000;stroke-width:0.5;" x1="397.1514" x2="391.1514" y1="134" y2="134"/><text fill="#000000" font-family="sans-serif" font-size="14" lengthAdjust="spacing" textLength="111.6514" x="270.5" y="148.9951">Control Group 1</text></g><!--entity CG1_1--><g id="elem_CG1_1"><rect fill="#EAEAEA" height="39.2969" rx="2.5" ry="2.5" style="stroke:#000000;stroke-width:0.5;" width="155.0088" x="87" y="239"/><polygon fill="#EAEAEA" points="225.0088,244,225.0088,258,237.0088,258,237.0088,250,231.0088,244,225.0088,244" style="stroke:#000000;stroke-width:0.5;"/><line style="stroke:#000000;stroke-width:0.5;" x1="231.0088" x2="231.0088" y1="244" y2="250"/><line style="stroke:#000000;stroke-width:0.5;" x1="237.0088" x2="231.0088" y1="250" y2="250"/><text fill="#000000" font-family="sans-serif" font-size="14" lengthAdjust="spacing" textLength="125.0088" x="97" y="264.9951">Control Group 1.1</text></g><!--entity CG2--><g id="elem_CG2"><rect fill="#EAEAEA" height="39.2969" rx="2.5" ry="2.5" style="stroke:#000000;stroke-width:0.5;" width="141.6514" x="440.5" y="123"/><polygon fill="#EAEAEA" points="565.1514,128,565.1514,142,577.1514,142,577.1514,134,571.1514,128,565.1514,128" style="stroke:#000000;stroke-width:0.5;"/><line style="stroke:#000000;stroke-width:0.5;" x1="571.1514" x2="571.1514" y1="128" y2="134"/><line style="stroke:#000000;stroke-width:0.5;" x1="577.1514" x2="571.1514" y1="134" y2="134"/><text fill="#000000" font-family="sans-serif" font-size="14" lengthAdjust="spacing" textLength="111.6514" x="450.5" y="148.9951">Control Group 2</text></g><!--entity CTRL1_1_1--><g id="elem_CTRL1_1_1"><rect fill="#EAEAEA" height="39.2969" rx="2.5" ry="2.5" style="stroke:#000000;stroke-width:0.5;" width="120.9863" x="7" y="355"/><polygon fill="#EAEAEA" points="110.9863,360,110.9863,374,122.9863,374,122.9863,366,116.9863,360,110.9863,360" style="stroke:#000000;stroke-width:0.5;"/><line style="stroke:#000000;stroke-width:0.5;" x1="116.9863" x2="116.9863" y1="360" y2="366"/><line style="stroke:#000000;stroke-width:0.5;" x1="122.9863" x2="116.9863" y1="366" y2="366"/><text fill="#000000" font-family="sans-serif" font-size="14" lengthAdjust="spacing" textLength="90.9863" x="17" y="380.9951">Control 1.1.1</text></g><!--entity CTRL1_1_2--><g id="elem_CTRL1_1_2"><rect fill="#EAEAEA" height="39.2969" rx="2.5" ry="2.5" style="stroke:#000000;stroke-width:0.5;" width="120.9863" x="202" y="355"/><polygon fill="#EAEAEA" points="305.9863,360,305.9863,374,317.9863,374,317.9863,366,311.9863,360,305.9863,360" style="stroke:#000000;stroke-width:0.5;"/><line style="stroke:#000000;stroke-width:0.5;" x1="311.9863" x2="311.9863" y1="360" y2="366"/><line style="stroke:#000000;stroke-width:0.5;" x1="317.9863" x2="311.9863" y1="366" y2="366"/><text fill="#000000" font-family="sans-serif" font-size="14" lengthAdjust="spacing" textLength="90.9863" x="212" y="380.9951">Control 1.1.2</text></g><!--entity CTRL1_2--><g id="elem_CTRL1_2"><rect fill="#EAEAEA" height="39.2969" rx="2.5" ry="2.5" style="stroke:#000000;stroke-width:0.5;" width="107.6289" x="277.5" y="239"/><polygon fill="#EAEAEA" points="368.1289,244,368.1289,258,380.1289,258,380.1289,250,374.1289,244,368.1289,244" style="stroke:#000000;stroke-width:0.5;"/><line style="stroke:#000000;stroke-width:0.5;" x1="374.1289" x2="374.1289" y1="244" y2="250"/><line style="stroke:#000000;stroke-width:0.5;" x1="380.1289" x2="374.1289" y1="250" y2="250"/><text fill="#000000" font-family="sans-serif" font-size="14" lengthAdjust="spacing" textLength="77.6289" x="287.5" y="264.9951">Control 1.2</text></g><!--entity CTRL2_1--><g id="elem_CTRL2_1"><rect fill="#EAEAEA" height="39.2969" rx="2.5" ry="2.5" style="stroke:#000000;stroke-width:0.5;" width="107.6289" x="460.5" y="239"/><polygon fill="#EAEAEA" points="551.1289,244,551.1289,258,563.1289,258,563.1289,250,557.1289,244,551.1289,244" style="stroke:#000000;stroke-width:0.5;"/><line style="stroke:#000000;stroke-width:0.5;" x1="557.1289" x2="557.1289" y1="244" y2="250"/><line style="stroke:#000000;stroke-width:0.5;" x1="563.1289" x2="557.1289" y1="250" y2="250"/><text fill="#000000" font-family="sans-serif" font-size="14" lengthAdjust="spacing" textLength="77.6289" x="470.5" y="264.9951">Control 2.1</text></g><!--link FRAMEWORK to CG1--><g id="link_FRAMEWORK_CG1"><path d="M405.17,46.07 C388.8,67.27 365.8556,96.9899 349.4956,118.1899 " fill="none" id="FRAMEWORK-to-CG1" style="stroke:#000000;stroke-width:1;"/><polygon fill="#000000" points="345.83,122.94,354.4952,118.2586,348.8847,118.9816,348.1617,113.3711,345.83,122.94" style="stroke:#000000;stroke-width:1;"/><text fill="#000000" font-family="sans-serif" font-size="13" lengthAdjust="spacing" textLength="55.0278" x="382.5" y="89.0669">contains</text></g><!--link FRAMEWORK to CG2--><g id="link_FRAMEWORK_CG2"><path d="M434.49,46.07 C451.59,67.27 475.6417,97.0709 492.7517,118.2709 " fill="none" id="FRAMEWORK-to-CG2" style="stroke:#000000;stroke-width:1;"/><polygon fill="#000000" points="496.52,122.94,493.9803,113.4242,493.3798,119.0491,487.7549,118.4486,496.52,122.94" style="stroke:#000000;stroke-width:1;"/><text fill="#000000" font-family="sans-serif" font-size="13" lengthAdjust="spacing" textLength="55.0278" x="471.5" y="89.0669">contains</text></g><!--link CG1 to CG1_1--><g id="link_CG1_CG1_1"><path d="M304.3,162.07 C273.24,183.27 227.6952,214.3568 196.6452,235.5568 " fill="none" id="CG1-to-CG1_1" style="stroke:#000000;stroke-width:1;"/><polygon fill="#000000" points="191.69,238.94,201.3782,237.1686,195.8193,236.1206,196.8673,230.5617,191.69,238.94" style="stroke:#000000;stroke-width:1;"/><text fill="#000000" font-family="sans-serif" font-size="13" lengthAdjust="spacing" textLength="55.0278" x="259.5" y="205.0669">contains</text></g><!--link CG1 to CTRL1_2--><g id="link_CG1_CTRL1_2"><path d="M329.89,162.13 C328.94,175.23 328.01,193.18 328.5,209 C328.8,218.78 329.0429,223.6738 329.6529,232.6438 " fill="none" id="CG1-to-CTRL1_2" style="stroke:#000000;stroke-width:1;"/><polygon fill="#000000" points="330.06,238.63,333.4402,229.3793,329.7208,233.6415,325.4586,229.9221,330.06,238.63" style="stroke:#000000;stroke-width:1;"/><text fill="#000000" font-family="sans-serif" font-size="13" lengthAdjust="spacing" textLength="141.3877" x="329.5" y="205.0669">contains (Control 1.2)</text></g><!--link CG1_1 to CTRL1_1_1--><g id="link_CG1_1_CTRL1_1_1"><path d="M99.57,278.07 C85.69,285.16 72.75,294.84 64.5,308 C55.8,321.89 56.4044,335.0543 59.8444,349.0143 " fill="none" id="CG1_1-to-CTRL1_1_1" style="stroke:#000000;stroke-width:1;"/><polygon fill="#000000" points="61.28,354.84,63.0105,345.1444,60.0837,349.9852,55.2428,347.0584,61.28,354.84" style="stroke:#000000;stroke-width:1;"/><text fill="#000000" font-family="sans-serif" font-size="13" lengthAdjust="spacing" textLength="153.791" x="65.5" y="321.0669">contains (Control 1.1.1)</text></g><!--link CG1_1 to CTRL1_1_2--><g id="link_CG1_1_CTRL1_1_2"><path d="M190.91,278.04 C201.76,286.43 213.99,296.94 223.5,308 C235.83,322.35 243.821,335.7717 250.881,349.5317 " fill="none" id="CG1_1-to-CTRL1_1_2" style="stroke:#000000;stroke-width:1;"/><polygon fill="#000000" points="253.62,354.87,253.0704,345.0365,251.3375,350.4214,245.9526,348.6885,253.62,354.87" style="stroke:#000000;stroke-width:1;"/><text fill="#000000" font-family="sans-serif" font-size="13" lengthAdjust="spacing" textLength="153.791" x="237.5" y="321.0669">contains (Control 1.1.2)</text></g><!--link CG2 to CTRL2_1--><g id="link_CG2_CTRL2_1"><path d="M511.99,162.07 C512.55,183.27 513.2916,211.7421 513.8516,232.9421 " fill="none" id="CG2-to-CTRL2_1" style="stroke:#000000;stroke-width:1;"/><polygon fill="#000000" points="514.01,238.94,517.771,229.8375,513.878,233.9417,509.7737,230.0488,514.01,238.94" style="stroke:#000000;stroke-width:1;"/><text fill="#000000" font-family="sans-serif" font-size="13" lengthAdjust="spacing" textLength="141.3877" x="513.5" y="205.0669">contains (Control 2.1)</text></g><!--SRC=[bPB1ReCm38RlF8NL7LOEdKQEFLJgKEbXgoQnIZkY55A8e0bAg7Zz6GfPs61bpWNmzzi_TdJEHKaLlS29ndcgv5KalYoaWeUW3KSRWggAdsbSlKYLCDLHpssCKJ_hxRRDiKYTqKJMNAHmfeLcWnfArjCDC7dCU9mBfZLuZlC8gud0r85o0G4AMIrL_XVREuU5BozbmQc8sRTo0LH346uFky_tyFLEKr-AIia2zZY0KiCIdLOiSUTsjyJWjOtzlJTDF1accgP8nv1vrlN_lAA7tiKnV4CVequQYWmeCahPp1X1h5uakdS3GbRGYakXCrxgDU0NirHORVeTuTF7zPIQbpbpCDS1aKqpVrX3Z3gySlfNajX9fu4xKJIGcSJjxwqKBAq9kMs9o6Q7XMmQZpk2aqdyLfuOcaoKnaMuNm00]--></g></svg>