<?xml version="1.0" encoding="UTF-8"?>
<svg xmlns="http://www.w3.org/2000/svg" xmlns:xlink="http://www.w3.org/1999/xlink" width="72px" height="px" viewBox="0 0 71 43" version="1.1">
<g id="surface1">
<path style=" stroke:none;fill-rule:nonzero;fill:rgb(0%,0%,0%);fill-opacity:1;" d="M 20.179688 15.6875 C 20.179688 16.5625 20.273438 17.269531 20.4375 17.789062 C 20.621094 18.308594 20.855469 18.878906 21.183594 19.492188 C 21.300781 19.679688 21.347656 19.871094 21.347656 20.035156 C 21.347656 20.269531 21.207031 20.507812 20.902344 20.742188 L 19.429688 21.734375 C 19.222656 21.878906 19.011719 21.949219 18.824219 21.949219 C 18.589844 21.949219 18.355469 21.832031 18.125 21.617188 C 17.796875 21.265625 17.515625 20.886719 17.28125 20.507812 C 17.050781 20.105469 16.816406 19.65625 16.558594 19.113281 C 14.738281 21.289062 12.449219 22.375 9.691406 22.375 C 7.730469 22.375 6.164062 21.808594 5.019531 20.671875 C 3.878906 19.539062 3.292969 18.027344 3.292969 16.136719 C 3.292969 14.128906 3.992188 12.5 5.417969 11.269531 C 6.84375 10.042969 8.734375 9.425781 11.140625 9.425781 C 11.933594 9.425781 12.753906 9.496094 13.617188 9.617188 C 14.480469 9.734375 15.367188 9.921875 16.300781 10.136719 L 16.300781 8.410156 C 16.300781 6.617188 15.929688 5.363281 15.203125 4.628906 C 14.457031 3.898438 13.195312 3.542969 11.398438 3.542969 C 10.578125 3.542969 9.738281 3.636719 8.875 3.851562 C 8.011719 4.0625 7.171875 4.324219 6.351562 4.65625 C 5.980469 4.820312 5.699219 4.914062 5.535156 4.960938 C 5.371094 5.007812 5.253906 5.03125 5.160156 5.03125 C 4.835938 5.03125 4.671875 4.796875 4.671875 4.300781 L 4.671875 3.140625 C 4.671875 2.765625 4.71875 2.480469 4.835938 2.316406 C 4.953125 2.148438 5.160156 1.984375 5.488281 1.820312 C 6.304688 1.394531 7.285156 1.039062 8.429688 0.757812 C 9.574219 0.449219 10.789062 0.308594 12.074219 0.308594 C 14.855469 0.308594 16.886719 0.945312 18.195312 2.222656 C 19.476562 3.496094 20.132812 5.433594 20.132812 8.03125 L 20.132812 15.6875 Z M 10.695312 19.277344 C 11.46875 19.277344 12.261719 19.136719 13.101562 18.855469 C 13.941406 18.570312 14.691406 18.050781 15.320312 17.339844 C 15.695312 16.894531 15.976562 16.398438 16.113281 15.828125 C 16.253906 15.261719 16.347656 14.578125 16.347656 13.773438 L 16.347656 12.78125 C 15.671875 12.617188 14.949219 12.476562 14.199219 12.378906 C 13.453125 12.285156 12.730469 12.238281 12.003906 12.238281 C 10.441406 12.238281 9.296875 12.546875 8.523438 13.183594 C 7.753906 13.820312 7.378906 14.71875 7.378906 15.902344 C 7.378906 17.011719 7.660156 17.839844 8.246094 18.40625 C 8.804688 18.996094 9.621094 19.277344 10.695312 19.277344 Z M 29.449219 21.832031 C 29.03125 21.832031 28.75 21.761719 28.5625 21.59375 C 28.375 21.453125 28.214844 21.121094 28.074219 20.671875 L 22.585938 2.410156 C 22.445312 1.9375 22.375 1.628906 22.375 1.464844 C 22.375 1.085938 22.5625 0.875 22.933594 0.875 L 25.222656 0.875 C 25.667969 0.875 25.972656 0.945312 26.132812 1.109375 C 26.320312 1.253906 26.460938 1.582031 26.601562 2.03125 L 30.523438 17.671875 L 34.167969 2.03125 C 34.285156 1.558594 34.425781 1.253906 34.613281 1.109375 C 34.800781 0.96875 35.125 0.875 35.546875 0.875 L 37.414062 0.875 C 37.859375 0.875 38.164062 0.945312 38.347656 1.109375 C 38.535156 1.253906 38.699219 1.582031 38.792969 2.03125 L 42.484375 17.863281 L 46.523438 2.03125 C 46.664062 1.558594 46.828125 1.253906 46.992188 1.109375 C 47.175781 0.96875 47.480469 0.875 47.902344 0.875 L 50.074219 0.875 C 50.449219 0.875 50.65625 1.0625 50.65625 1.464844 C 50.65625 1.582031 50.632812 1.699219 50.609375 1.84375 C 50.585938 1.984375 50.539062 2.171875 50.449219 2.433594 L 44.820312 20.695312 C 44.679688 21.167969 44.515625 21.476562 44.328125 21.617188 C 44.140625 21.761719 43.835938 21.855469 43.441406 21.855469 L 41.433594 21.855469 C 40.988281 21.855469 40.683594 21.785156 40.496094 21.617188 C 40.3125 21.453125 40.148438 21.144531 40.054688 20.671875 L 36.433594 5.433594 L 32.835938 20.648438 C 32.722656 21.121094 32.582031 21.429688 32.394531 21.59375 C 32.207031 21.761719 31.878906 21.832031 31.460938 21.832031 Z M 59.460938 22.46875 C 58.246094 22.46875 57.035156 22.328125 55.867188 22.042969 C 54.699219 21.761719 53.789062 21.453125 53.179688 21.097656 C 52.804688 20.886719 52.550781 20.648438 52.457031 20.4375 C 52.363281 20.222656 52.316406 19.988281 52.316406 19.773438 L 52.316406 18.570312 C 52.316406 18.074219 52.503906 17.839844 52.851562 17.839844 C 52.992188 17.839844 53.132812 17.863281 53.273438 17.910156 C 53.414062 17.957031 53.625 18.050781 53.855469 18.144531 C 54.652344 18.5 55.515625 18.78125 56.425781 18.972656 C 57.359375 19.160156 58.269531 19.253906 59.207031 19.253906 C 60.675781 19.253906 61.820312 18.996094 62.617188 18.476562 C 63.410156 17.957031 63.828125 17.199219 63.828125 16.230469 C 63.828125 15.570312 63.621094 15.027344 63.199219 14.578125 C 62.777344 14.128906 61.984375 13.726562 60.839844 13.347656 L 57.453125 12.285156 C 55.75 11.742188 54.488281 10.9375 53.71875 9.875 C 52.945312 8.835938 52.550781 7.679688 52.550781 6.449219 C 52.550781 5.457031 52.757812 4.582031 53.179688 3.828125 C 53.601562 3.070312 54.160156 2.410156 54.863281 1.890625 C 55.5625 1.347656 56.355469 0.945312 57.289062 0.660156 C 58.226562 0.378906 59.207031 0.261719 60.234375 0.261719 C 60.746094 0.261719 61.285156 0.285156 61.796875 0.355469 C 62.335938 0.425781 62.824219 0.519531 63.316406 0.613281 C 63.785156 0.730469 64.226562 0.851562 64.648438 0.992188 C 65.066406 1.132812 65.394531 1.277344 65.628906 1.417969 C 65.957031 1.605469 66.1875 1.796875 66.328125 2.007812 C 66.46875 2.195312 66.539062 2.457031 66.539062 2.789062 L 66.539062 3.898438 C 66.539062 4.394531 66.351562 4.65625 66.003906 4.65625 C 65.816406 4.65625 65.511719 4.558594 65.113281 4.371094 C 63.785156 3.757812 62.289062 3.449219 60.628906 3.449219 C 59.300781 3.449219 58.246094 3.660156 57.523438 4.109375 C 56.800781 4.558594 56.425781 5.246094 56.425781 6.214844 C 56.425781 6.875 56.660156 7.441406 57.128906 7.890625 C 57.59375 8.339844 58.457031 8.789062 59.695312 9.191406 L 63.011719 10.253906 C 64.695312 10.796875 65.910156 11.554688 66.632812 12.523438 C 67.355469 13.492188 67.707031 14.601562 67.707031 15.828125 C 67.707031 16.84375 67.496094 17.765625 67.101562 18.570312 C 66.679688 19.375 66.117188 20.082031 65.394531 20.648438 C 64.671875 21.238281 63.804688 21.664062 62.800781 21.972656 C 61.75 22.304688 60.652344 22.46875 59.460938 22.46875 Z M 59.460938 22.46875 "/>
<path style=" stroke:none;fill-rule:nonzero;fill:rgb(0%,0%,0%);fill-opacity:1;" d="M 63.875 33.949219 C 56.191406 39.691406 45.027344 42.738281 35.429688 42.738281 C 21.976562 42.738281 9.855469 37.707031 0.699219 29.34375 C -0.0234375 28.683594 0.628906 27.785156 1.496094 28.304688 C 11.398438 34.117188 23.613281 37.636719 36.246094 37.636719 C 44.773438 37.636719 54.136719 35.839844 62.753906 32.15625 C 64.039062 31.566406 65.136719 33.007812 63.875 33.949219 Z M 63.875 33.949219 "/>
<path style=" stroke:none;fill-rule:nonzero;fill:rgb(0%,0%,0%);fill-opacity:1;" d="M 67.078125 30.265625 C 66.09375 28.988281 60.582031 29.652344 58.085938 29.957031 C 57.335938 30.054688 57.21875 29.390625 57.898438 28.894531 C 62.289062 25.777344 69.503906 26.675781 70.347656 27.714844 C 71.1875 28.777344 70.113281 36.078125 66.003906 39.574219 C 65.371094 40.117188 64.765625 39.835938 65.042969 39.125 C 65.980469 36.785156 68.058594 31.519531 67.078125 30.265625 Z M 67.078125 30.265625 "/>
</g>
</svg>
