<?xml version="1.0" encoding="UTF-8"?>
<svg xmlns="http://www.w3.org/2000/svg" xmlns:xlink="http://www.w3.org/1999/xlink" width="72px" height="px" viewBox="0 0 72 72" version="1.1">
<defs>
<linearGradient id="linear0" gradientUnits="userSpaceOnUse" x1="-1032.171997" y1="145.311996" x2="-1059.213013" y2="65.426003" gradientTransform="matrix(0.75,0,0,-0.75,806.25,118.5)">
<stop offset="0" style="stop-color:rgb(6.666667%,29.019608%,54.509804%);stop-opacity:1;"/>
<stop offset="1" style="stop-color:rgb(2.352941%,41.176471%,73.72549%);stop-opacity:1;"/>
</linearGradient>
<linearGradient id="linear1" gradientUnits="userSpaceOnUse" x1="-1023.724976" y1="108.083" x2="-1029.97998" y2="105.968002" gradientTransform="matrix(0.75,0,0,-0.75,806.25,118.5)">
<stop offset="0" style="stop-color:rgb(0%,0%,0%);stop-opacity:0.301961;"/>
<stop offset="0.071" style="stop-color:rgb(0%,0%,0%);stop-opacity:0.2;"/>
<stop offset="0.321" style="stop-color:rgb(0%,0%,0%);stop-opacity:0.101961;"/>
<stop offset="0.623" style="stop-color:rgb(0%,0%,0%);stop-opacity:0.0509804;"/>
<stop offset="1" style="stop-color:rgb(0%,0%,0%);stop-opacity:0;"/>
</linearGradient>
<linearGradient id="linear2" gradientUnits="userSpaceOnUse" x1="-1027.165039" y1="147.641998" x2="-997.481995" y2="68.560997" gradientTransform="matrix(0.75,0,0,-0.75,806.25,118.5)">
<stop offset="0" style="stop-color:rgb(23.529412%,79.607843%,95.686275%);stop-opacity:1;"/>
<stop offset="1" style="stop-color:rgb(15.686275%,57.254902%,87.45098%);stop-opacity:1;"/>
</linearGradient>
</defs>
<g id="surface1">
<path style=" stroke:none;fill-rule:nonzero;fill:url(#linear0);" d="M 25.003906 4.90625 L 44.53125 4.90625 L 24.257812 64.972656 C 23.832031 66.238281 22.644531 67.089844 21.308594 67.089844 L 6.113281 67.089844 C 5.109375 67.089844 4.171875 66.609375 3.585938 65.796875 C 3.003906 64.984375 2.84375 63.9375 3.164062 62.988281 L 22.054688 7.027344 C 22.480469 5.761719 23.667969 4.90625 25.003906 4.90625 Z M 25.003906 4.90625 "/>
<path style=" stroke:none;fill-rule:nonzero;fill:rgb(0%,47.058824%,83.137256%);fill-opacity:1;" d="M 53.382812 45.195312 L 22.414062 45.195312 C 21.824219 45.195312 21.296875 45.554688 21.078125 46.101562 C 20.863281 46.652344 21.003906 47.277344 21.433594 47.675781 L 41.335938 66.25 C 41.914062 66.789062 42.675781 67.089844 43.46875 67.089844 L 61.003906 67.089844 Z M 53.382812 45.195312 "/>
<path style=" stroke:none;fill-rule:nonzero;fill:url(#linear1);" d="M 25.003906 4.90625 C 23.652344 4.902344 22.453125 5.777344 22.046875 7.066406 L 3.1875 62.9375 C 2.847656 63.890625 2.992188 64.949219 3.574219 65.777344 C 4.15625 66.601562 5.109375 67.09375 6.121094 67.089844 L 21.710938 67.089844 C 22.890625 66.878906 23.871094 66.050781 24.269531 64.917969 L 28.027344 53.832031 L 41.460938 66.363281 C 42.023438 66.828125 42.730469 67.085938 43.460938 67.089844 L 60.929688 67.089844 L 53.269531 45.195312 L 30.933594 45.199219 L 44.601562 4.90625 Z M 25.003906 4.90625 "/>
<path style=" stroke:none;fill-rule:nonzero;fill:url(#linear2);" d="M 49.945312 7.023438 C 49.519531 5.757812 48.335938 4.90625 47 4.90625 L 25.234375 4.90625 C 26.570312 4.90625 27.753906 5.757812 28.183594 7.023438 L 47.070312 62.988281 C 47.390625 63.9375 47.234375 64.980469 46.648438 65.796875 C 46.066406 66.609375 45.125 67.09375 44.125 67.09375 L 65.890625 67.09375 C 66.890625 67.089844 67.832031 66.609375 68.414062 65.796875 C 69 64.980469 69.15625 63.9375 68.835938 62.988281 Z M 49.945312 7.023438 "/>
</g>
</svg>
