<?xml version="1.0" encoding="UTF-8"?>
<svg xmlns="http://www.w3.org/2000/svg" xmlns:xlink="http://www.w3.org/1999/xlink" width="72px" height="px" viewBox="0 0 72 72" version="1.1">
<g id="surface1">
<path style=" stroke:none;fill-rule:nonzero;fill:rgb(100%,100%,100%);fill-opacity:1;" d="M 10.800781 0 L 61.199219 0 C 67.164062 0 72 4.835938 72 10.800781 L 72 61.199219 C 72 67.164062 67.164062 72 61.199219 72 L 10.800781 72 C 4.835938 72 0 67.164062 0 61.199219 L 0 10.800781 C 0 4.835938 4.835938 0 10.800781 0 Z M 10.800781 0 "/>
<path style=" stroke:none;fill-rule:nonzero;fill:rgb(95.294118%,50.196081%,12.54902%);fill-opacity:1;" d="M 46.546875 45.84375 C 48.09375 42.1875 45.984375 40.5 43.875 40.5 L 23.0625 40.21875 C 22.5 40.21875 22.5 39.375 23.203125 39.234375 L 44.296875 38.953125 C 46.6875 38.8125 49.5 36.84375 50.34375 34.3125 C 50.34375 34.3125 51.75 31.359375 51.609375 30.9375 C 50.359375 24.898438 45.210938 20.449219 39.054688 20.089844 C 32.898438 19.726562 27.261719 23.539062 25.3125 29.390625 C 19.96875 25.875 14.34375 30.65625 15.609375 35.859375 C 8.859375 36.28125 6.46875 42.328125 7.171875 45.984375 C 7.171875 46.125 7.3125 46.265625 7.59375 46.265625 L 46.125 46.265625 C 46.265625 46.265625 46.546875 46.125 46.546875 45.84375 Z M 46.546875 45.84375 "/>
<path style=" stroke:none;fill-rule:nonzero;fill:rgb(98.039216%,68.235296%,25.098041%);fill-opacity:1;" d="M 53.578125 31.5 C 53.015625 31.5 52.734375 31.359375 52.59375 31.640625 L 51.890625 34.59375 C 51.1875 36.84375 52.3125 38.8125 54.703125 38.953125 L 59.203125 39.234375 C 59.765625 39.234375 59.765625 40.078125 59.0625 40.21875 L 54.421875 40.359375 C 49.359375 40.921875 47.953125 45.84375 47.953125 45.84375 C 47.953125 46.125 47.953125 46.265625 48.234375 46.265625 L 64.125 46.265625 L 64.546875 45.984375 C 65.515625 42.550781 64.820312 38.859375 62.664062 36.015625 C 60.511719 33.167969 57.148438 31.496094 53.578125 31.5 "/>
</g>
</svg>
