<?xml version="1.0" encoding="UTF-8"?>
<svg xmlns="http://www.w3.org/2000/svg" xmlns:xlink="http://www.w3.org/1999/xlink" width="72px" height="px" viewBox="0 0 72 54" version="1.1">
<g id="surface1">
<path style=" stroke:none;fill-rule:nonzero;fill:rgb(0%,50.196081%,100%);fill-opacity:1;" d="M 35.945312 29.089844 L 35.945312 36.039062 C 47.722656 36.039062 56.890625 24.660156 53.039062 12.320312 C 51.355469 6.925781 47.070312 2.640625 41.679688 0.957031 C 29.335938 -2.894531 17.960938 6.277344 17.960938 18.050781 L 24.921875 18.050781 C 24.925781 18.050781 24.925781 18.050781 24.925781 18.050781 C 24.925781 10.660156 32.242188 4.945312 40.011719 7.765625 C 42.890625 8.808594 45.1875 11.105469 46.230469 13.984375 C 49.050781 21.75 43.347656 29.0625 35.960938 29.074219 L 35.960938 22.148438 C 35.960938 22.148438 35.960938 22.144531 35.960938 22.144531 L 29.015625 22.144531 C 29.015625 22.144531 29.015625 22.148438 29.015625 22.148438 L 29.015625 29.089844 Z M 29.015625 34.425781 L 23.679688 34.425781 L 23.679688 29.089844 L 29.015625 29.089844 Z M 23.683594 29.089844 L 19.210938 29.089844 C 19.210938 29.089844 19.207031 29.089844 19.207031 29.089844 L 19.207031 24.617188 C 19.207031 24.617188 19.210938 24.617188 19.210938 24.617188 L 23.679688 24.617188 C 23.679688 24.617188 23.683594 24.617188 23.683594 24.617188 Z M 23.683594 29.089844 "/>
<path style=" stroke:none;fill-rule:nonzero;fill:rgb(0%,50.196081%,100%);fill-opacity:1;" d="M 6.214844 43.085938 C 5.308594 42.457031 4.183594 42.140625 2.867188 42.140625 L 0 42.140625 L 0 51.234375 L 2.867188 51.234375 C 4.179688 51.234375 5.304688 50.898438 6.214844 50.234375 C 6.710938 49.882812 7.097656 49.390625 7.371094 48.777344 C 7.640625 48.164062 7.777344 47.441406 7.777344 46.628906 C 7.777344 45.824219 7.640625 45.109375 7.371094 44.507812 C 7.097656 43.898438 6.710938 43.421875 6.214844 43.085938 Z M 1.675781 43.675781 L 2.574219 43.675781 C 3.574219 43.675781 4.398438 43.875 5.023438 44.261719 C 5.714844 44.679688 6.066406 45.476562 6.066406 46.628906 C 6.066406 47.8125 5.714844 48.644531 5.019531 49.097656 C 4.421875 49.496094 3.601562 49.695312 2.585938 49.695312 L 1.675781 49.695312 Z M 8.953125 51.234375 L 10.566406 51.234375 L 10.566406 44.828125 L 8.953125 44.828125 Z M 9.773438 42.027344 C 9.5 42.027344 9.261719 42.125 9.070312 42.316406 C 8.878906 42.5 8.777344 42.734375 8.777344 43.011719 C 8.777344 43.285156 8.875 43.523438 9.070312 43.714844 C 9.261719 43.910156 9.5 44.007812 9.773438 44.007812 C 10.050781 44.007812 10.285156 43.910156 10.480469 43.714844 C 10.671875 43.523438 10.769531 43.285156 10.769531 43.011719 C 10.769531 42.734375 10.671875 42.5 10.480469 42.320312 C 10.285156 42.125 10.050781 42.027344 9.773438 42.027344 Z M 16.417969 45.363281 C 15.929688 44.929688 15.386719 44.679688 14.800781 44.679688 C 13.914062 44.679688 13.171875 44.988281 12.605469 45.59375 C 12.027344 46.195312 11.738281 46.96875 11.738281 47.894531 C 11.738281 48.796875 12.023438 49.570312 12.59375 50.1875 C 13.164062 50.785156 13.90625 51.089844 14.800781 51.089844 C 15.421875 51.089844 15.957031 50.917969 16.390625 50.574219 L 16.390625 50.722656 C 16.390625 51.253906 16.25 51.667969 15.96875 51.949219 C 15.6875 52.234375 15.300781 52.378906 14.8125 52.378906 C 14.070312 52.378906 13.605469 52.085938 13.035156 51.320312 L 11.9375 52.375 L 11.96875 52.414062 C 12.207031 52.746094 12.570312 53.074219 13.046875 53.382812 C 13.527344 53.691406 14.128906 53.847656 14.839844 53.847656 C 15.796875 53.847656 16.570312 53.550781 17.140625 52.96875 C 17.710938 52.386719 18.003906 51.601562 18.003906 50.644531 L 18.003906 44.828125 L 16.417969 44.828125 Z M 15.996094 49.144531 C 15.710938 49.464844 15.351562 49.621094 14.890625 49.621094 C 14.425781 49.621094 14.066406 49.464844 13.789062 49.144531 C 13.511719 48.828125 13.371094 48.40625 13.371094 47.894531 C 13.371094 47.371094 13.511719 46.945312 13.789062 46.625 C 14.0625 46.308594 14.433594 46.148438 14.890625 46.148438 C 15.351562 46.148438 15.710938 46.304688 15.992188 46.625 C 16.273438 46.945312 16.417969 47.371094 16.417969 47.894531 C 16.417969 48.40625 16.273438 48.828125 15.996094 49.144531 Z M 19.382812 51.234375 L 20.992188 51.234375 L 20.992188 44.828125 L 19.382812 44.828125 Z M 20.203125 42.027344 C 19.929688 42.027344 19.691406 42.125 19.5 42.316406 C 19.304688 42.5 19.207031 42.734375 19.207031 43.011719 C 19.207031 43.285156 19.304688 43.523438 19.5 43.714844 C 19.691406 43.910156 19.929688 44.007812 20.203125 44.007812 C 20.480469 44.007812 20.714844 43.910156 20.910156 43.714844 C 21.101562 43.523438 21.199219 43.285156 21.199219 43.011719 C 21.199219 42.734375 21.101562 42.5 20.910156 42.320312 C 20.714844 42.125 20.480469 42.027344 20.203125 42.027344 Z M 24.527344 43.097656 L 22.941406 43.097656 L 22.941406 44.828125 L 22.019531 44.828125 L 22.019531 46.296875 L 22.941406 46.296875 L 22.941406 48.957031 C 22.941406 49.789062 23.105469 50.386719 23.433594 50.726562 C 23.761719 51.070312 24.347656 51.246094 25.171875 51.246094 C 25.433594 51.246094 25.695312 51.238281 25.953125 51.21875 L 26.027344 51.214844 L 26.027344 49.746094 L 25.472656 49.777344 C 25.089844 49.777344 24.832031 49.707031 24.710938 49.578125 C 24.589844 49.441406 24.527344 49.15625 24.527344 48.730469 L 24.527344 46.296875 L 26.027344 46.296875 L 26.027344 44.828125 L 24.527344 44.828125 Z M 31.558594 45.308594 L 31.554688 45.308594 C 31.066406 44.890625 30.394531 44.679688 29.550781 44.679688 C 29.015625 44.679688 28.511719 44.796875 28.058594 45.027344 C 27.640625 45.238281 27.226562 45.59375 26.964844 46.054688 L 26.980469 46.074219 L 28.015625 47.0625 C 28.4375 46.382812 28.910156 46.148438 29.539062 46.148438 C 29.875 46.148438 30.15625 46.238281 30.367188 46.417969 C 30.582031 46.59375 30.6875 46.816406 30.6875 47.101562 L 30.6875 47.414062 C 30.289062 47.292969 29.886719 47.230469 29.5 47.230469 C 28.699219 47.230469 28.046875 47.417969 27.5625 47.792969 C 27.070312 48.167969 26.820312 48.707031 26.820312 49.394531 C 26.820312 49.996094 27.03125 50.484375 27.445312 50.847656 C 27.867188 51.199219 28.390625 51.375 29.003906 51.375 C 29.617188 51.375 30.191406 51.128906 30.710938 50.707031 L 30.710938 51.234375 L 32.296875 51.234375 L 32.296875 47.117188 C 32.296875 46.335938 32.046875 45.726562 31.558594 45.308594 Z M 28.695312 48.785156 C 28.878906 48.65625 29.136719 48.59375 29.464844 48.59375 C 29.851562 48.59375 30.261719 48.671875 30.6875 48.824219 L 30.6875 49.453125 C 30.335938 49.78125 29.867188 49.945312 29.296875 49.945312 C 29.015625 49.945312 28.800781 49.882812 28.652344 49.761719 C 28.503906 49.640625 28.433594 49.488281 28.433594 49.292969 C 28.433594 49.074219 28.519531 48.90625 28.695312 48.785156 Z M 33.582031 51.234375 L 35.195312 51.234375 L 35.195312 42.140625 L 33.582031 42.140625 Z M 41.039062 51.371094 C 38.457031 51.371094 36.351562 49.265625 36.351562 46.683594 C 36.351562 44.097656 38.457031 41.996094 41.039062 41.996094 C 43.625 41.996094 45.726562 44.097656 45.726562 46.683594 C 45.726562 49.265625 43.625 51.371094 41.039062 51.371094 Z M 41.039062 43.648438 C 39.367188 43.648438 38.003906 45.007812 38.003906 46.683594 C 38.003906 48.355469 39.367188 49.71875 41.039062 49.71875 C 42.714844 49.71875 44.074219 48.355469 44.074219 46.683594 C 44.074219 45.007812 42.714844 43.648438 41.039062 43.648438 Z M 51.472656 48.941406 C 51.1875 49.265625 50.890625 49.546875 50.664062 49.691406 C 50.441406 49.835938 50.160156 49.90625 49.828125 49.90625 C 49.351562 49.90625 48.972656 49.734375 48.660156 49.378906 C 48.351562 49.023438 48.195312 48.570312 48.195312 48.023438 C 48.195312 47.480469 48.347656 47.027344 48.65625 46.675781 C 48.960938 46.320312 49.339844 46.148438 49.816406 46.148438 C 50.335938 46.148438 50.882812 46.46875 51.351562 47.023438 L 52.414062 46.003906 C 51.722656 45.101562 50.835938 44.679688 49.777344 44.679688 C 48.894531 44.679688 48.125 45 47.5 45.636719 C 46.875 46.269531 46.558594 47.070312 46.558594 48.023438 C 46.558594 48.976562 46.875 49.785156 47.496094 50.417969 C 48.121094 51.054688 48.890625 51.375 49.777344 51.375 C 50.945312 51.375 51.886719 50.871094 52.523438 49.949219 Z M 58.089844 45.722656 C 57.859375 45.40625 57.546875 45.148438 57.164062 44.960938 C 56.777344 44.773438 56.332031 44.679688 55.832031 44.679688 C 54.933594 44.679688 54.195312 45.011719 53.644531 45.667969 C 53.105469 46.316406 52.835938 47.125 52.835938 48.066406 C 52.835938 49.039062 53.132812 49.84375 53.722656 50.457031 C 54.304688 51.066406 55.089844 51.375 56.050781 51.375 C 57.136719 51.375 58.027344 50.9375 58.699219 50.070312 L 58.734375 50.023438 L 57.683594 49.011719 C 57.585938 49.128906 57.449219 49.265625 57.324219 49.382812 C 57.164062 49.53125 57.015625 49.648438 56.855469 49.726562 C 56.613281 49.847656 56.34375 49.90625 56.042969 49.90625 C 55.59375 49.90625 55.226562 49.777344 54.941406 49.515625 C 54.679688 49.273438 54.523438 48.949219 54.480469 48.542969 L 58.75 48.542969 L 58.765625 47.957031 C 58.765625 47.539062 58.710938 47.140625 58.597656 46.765625 C 58.484375 46.386719 58.3125 46.039062 58.089844 45.722656 Z M 54.566406 47.230469 C 54.644531 46.925781 54.785156 46.667969 54.988281 46.472656 C 55.207031 46.257812 55.488281 46.148438 55.832031 46.148438 C 56.222656 46.148438 56.523438 46.257812 56.730469 46.480469 C 56.921875 46.683594 57.027344 46.933594 57.050781 47.230469 Z M 64.277344 45.308594 C 63.789062 44.890625 63.113281 44.679688 62.269531 44.679688 C 61.734375 44.679688 61.234375 44.796875 60.777344 45.027344 C 60.359375 45.238281 59.949219 45.59375 59.6875 46.054688 L 59.703125 46.074219 L 60.734375 47.0625 C 61.160156 46.382812 61.632812 46.148438 62.257812 46.148438 C 62.59375 46.148438 62.875 46.238281 63.089844 46.417969 C 63.300781 46.59375 63.40625 46.816406 63.40625 47.101562 L 63.40625 47.414062 C 63.007812 47.292969 62.609375 47.230469 62.21875 47.230469 C 61.417969 47.230469 60.765625 47.417969 60.28125 47.792969 C 59.789062 48.167969 59.542969 48.707031 59.542969 49.394531 C 59.542969 49.996094 59.75 50.484375 60.167969 50.847656 C 60.585938 51.199219 61.109375 51.375 61.722656 51.375 C 62.335938 51.375 62.910156 51.128906 63.429688 50.707031 L 63.429688 51.234375 L 65.019531 51.234375 L 65.019531 47.117188 C 65.019531 46.335938 64.769531 45.726562 64.277344 45.308594 Z M 61.414062 48.785156 C 61.597656 48.65625 61.855469 48.59375 62.183594 48.59375 C 62.570312 48.59375 62.984375 48.671875 63.40625 48.824219 L 63.40625 49.453125 C 63.054688 49.78125 62.589844 49.945312 62.015625 49.945312 C 61.738281 49.945312 61.519531 49.882812 61.371094 49.761719 C 61.222656 49.640625 61.152344 49.488281 61.152344 49.292969 C 61.152344 49.074219 61.238281 48.90625 61.414062 48.785156 Z M 71.21875 45.433594 C 70.769531 44.933594 70.136719 44.679688 69.34375 44.679688 C 68.703125 44.679688 68.183594 44.863281 67.796875 45.226562 L 67.796875 44.828125 L 66.214844 44.828125 L 66.214844 51.234375 L 67.828125 51.234375 L 67.828125 47.699219 C 67.828125 47.214844 67.941406 46.832031 68.171875 46.554688 C 68.398438 46.28125 68.710938 46.148438 69.125 46.148438 C 69.488281 46.148438 69.765625 46.265625 69.96875 46.511719 C 70.175781 46.757812 70.28125 47.097656 70.28125 47.519531 L 70.28125 51.234375 L 71.890625 51.234375 L 71.890625 47.519531 C 71.890625 46.632812 71.664062 45.929688 71.21875 45.433594 Z M 71.21875 45.433594 "/>
</g>
</svg>
