<?xml version="1.0" encoding="UTF-8"?>
<svg xmlns="http://www.w3.org/2000/svg" xmlns:xlink="http://www.w3.org/1999/xlink" width="72px" height="px" viewBox="0 0 72 72" version="1.1">
<g id="surface1">
<path style=" stroke:none;fill-rule:nonzero;fill:rgb(13.333334%,31.37255%,52.549022%);fill-opacity:1;" d="M 15.207031 56.128906 C 16.761719 57.097656 19.339844 58.171875 22.066406 58.171875 C 24.550781 58.171875 26.859375 57.453125 28.773438 56.222656 C 28.773438 56.222656 28.777344 56.222656 28.78125 56.21875 L 36 51.707031 L 36 68 C 34.855469 68 33.703125 67.6875 32.703125 67.0625 Z M 15.207031 56.128906 "/>
<path style=" stroke:none;fill-rule:nonzero;fill:rgb(40.000001%,86.666667%,100%);fill-opacity:1;" d="M 31.410156 6.027344 L 1.410156 39.867188 C -0.902344 42.484375 -0.300781 46.4375 2.703125 48.3125 C 2.703125 48.3125 13.808594 55.253906 15.207031 56.128906 C 16.761719 57.097656 19.339844 58.171875 22.066406 58.171875 C 24.550781 58.171875 26.859375 57.453125 28.773438 56.222656 C 28.773438 56.222656 28.777344 56.222656 28.78125 56.21875 L 36 51.707031 L 18.542969 40.796875 L 36.003906 21.101562 L 36.003906 4 C 34.308594 4 32.617188 4.675781 31.414062 6.027344 Z M 31.410156 6.027344 "/>
<path style=" stroke:none;fill-rule:nonzero;fill:rgb(79.607844%,97.254902%,100%);fill-opacity:1;" d="M 18.542969 40.796875 L 18.753906 40.925781 L 36 51.707031 L 36.003906 51.707031 L 36.003906 21.105469 L 36 21.101562 Z M 18.542969 40.796875 "/>
<path style=" stroke:none;fill-rule:nonzero;fill:rgb(2.745098%,27.843139%,57.647061%);fill-opacity:1;" d="M 69.296875 48.3125 C 72.300781 46.4375 72.902344 42.484375 70.589844 39.867188 L 50.902344 17.664062 C 49.316406 16.925781 47.535156 16.5 45.652344 16.5 C 41.953125 16.5 38.644531 18.097656 36.445312 20.605469 L 36.007812 21.097656 C 36.007812 21.097656 53.464844 40.792969 53.464844 40.792969 L 36.003906 51.703125 L 36.003906 67.996094 C 37.152344 67.996094 38.296875 67.683594 39.296875 67.058594 L 69.296875 48.308594 Z M 69.296875 48.3125 "/>
<path style=" stroke:none;fill-rule:nonzero;fill:rgb(0.784314%,58.039218%,89.411765%);fill-opacity:1;" d="M 36.003906 4 L 36.003906 21.101562 C 36.003906 21.101562 36.441406 20.609375 36.441406 20.609375 C 38.640625 18.101562 41.949219 16.503906 45.648438 16.503906 C 47.535156 16.503906 49.3125 16.933594 50.898438 17.667969 L 40.585938 6.03125 C 39.386719 4.679688 37.691406 4.003906 36 4.003906 Z M 36.003906 4 "/>
<path style=" stroke:none;fill-rule:nonzero;fill:rgb(58.823532%,73.725492%,76.078433%);fill-opacity:1;" d="M 53.460938 40.796875 L 36.003906 21.105469 L 36.003906 51.703125 Z M 53.460938 40.796875 "/>
</g>
</svg>
