<?xml version="1.0" encoding="UTF-8"?>
<svg xmlns="http://www.w3.org/2000/svg" xmlns:xlink="http://www.w3.org/1999/xlink" width="72px" height="px" viewBox="0 0 72 72" version="1.1">
<g id="surface1">
<path style=" stroke:none;fill-rule:evenodd;fill:rgb(8.627451%,8.235294%,7.843138%);fill-opacity:1;" d="M 36 4.5 C 18.597656 4.5 4.5 18.585938 4.5 35.96875 C 4.5 49.875 13.527344 61.664062 26.042969 65.824219 C 27.617188 66.113281 28.191406 65.140625 28.191406 64.308594 C 28.191406 63.5625 28.164062 61.582031 28.148438 58.953125 C 19.386719 60.859375 17.539062 54.738281 17.539062 54.738281 C 16.105469 51.101562 14.039062 50.132812 14.039062 50.132812 C 11.183594 48.179688 14.257812 48.222656 14.257812 48.222656 C 17.417969 48.445312 19.085938 51.460938 19.085938 51.460938 C 21.890625 56.277344 26.457031 54.882812 28.25 54.082031 C 28.535156 52.046875 29.347656 50.660156 30.25 49.875 C 23.257812 49.082031 15.902344 46.382812 15.902344 34.320312 C 15.902344 30.886719 17.132812 28.074219 19.144531 25.878906 C 18.820312 25.082031 17.738281 21.882812 19.457031 17.554688 C 19.457031 17.554688 22.09375 16.703125 28.117188 20.777344 C 30.6875 20.078125 33.335938 19.71875 36 19.714844 C 38.675781 19.726562 41.371094 20.074219 43.886719 20.777344 C 49.902344 16.703125 52.542969 17.550781 52.542969 17.550781 C 54.261719 21.882812 53.179688 25.082031 52.855469 25.875 C 54.871094 28.078125 56.097656 30.886719 56.097656 34.320312 C 56.097656 46.410156 48.726562 49.074219 41.710938 49.847656 C 42.839844 50.820312 43.847656 52.738281 43.847656 55.679688 C 43.847656 59.882812 43.808594 63.273438 43.808594 64.308594 C 43.808594 65.152344 44.378906 66.128906 45.976562 65.820312 C 58.824219 61.535156 67.496094 49.511719 67.5 35.96875 C 67.488281 18.582031 53.386719 4.492188 36 4.5 Z M 36 4.5 "/>
</g>
</svg>
