<?xml version="1.0" encoding="UTF-8"?>
<svg xmlns="http://www.w3.org/2000/svg" xmlns:xlink="http://www.w3.org/1999/xlink" width="72px" height="px" viewBox="0 0 73 18" version="1.1">
<g id="surface1">
<path style=" stroke:none;fill-rule:nonzero;fill:rgb(0%,0%,0%);fill-opacity:1;" d="M 52.058594 7.011719 C 50.984375 7.011719 50.21875 7.378906 49.839844 8.074219 L 49.640625 8.453125 L 49.640625 7.191406 L 47.890625 7.191406 L 47.890625 14.851562 L 49.730469 14.851562 L 49.730469 10.292969 C 49.730469 9.207031 50.320312 8.582031 51.347656 8.582031 C 52.328125 8.582031 52.890625 9.1875 52.890625 10.25 L 52.890625 14.851562 L 54.734375 14.851562 L 54.734375 9.921875 C 54.734375 8.097656 53.734375 7.011719 52.058594 7.011719 Z M 43.140625 7.011719 C 40.96875 7.011719 39.625 8.367188 39.625 10.550781 L 39.625 11.628906 C 39.625 13.726562 40.984375 15.03125 43.171875 15.03125 C 44.636719 15.03125 45.664062 14.496094 46.308594 13.390625 L 45.171875 12.730469 C 44.691406 13.367188 43.929688 13.765625 43.175781 13.765625 C 42.066406 13.765625 41.40625 13.078125 41.40625 11.929688 L 41.40625 11.625 L 46.539062 11.625 L 46.539062 10.355469 C 46.539062 8.320312 45.207031 7.011719 43.140625 7.011719 Z M 44.863281 10.386719 L 41.398438 10.386719 L 41.398438 10.203125 C 41.398438 8.941406 42.015625 8.246094 43.136719 8.246094 C 44.21875 8.246094 44.863281 8.933594 44.863281 10.082031 Z M 73 5.929688 L 73 4.464844 L 66.636719 4.464844 L 66.636719 5.929688 L 68.867188 5.929688 L 68.867188 13.382812 L 66.636719 13.382812 L 66.636719 14.847656 L 73 14.847656 L 73 13.382812 L 70.769531 13.382812 L 70.769531 5.929688 Z M 24.757812 4.253906 C 21.914062 4.253906 20.148438 6.027344 20.148438 8.886719 L 20.148438 10.429688 C 20.148438 13.289062 21.914062 15.0625 24.757812 15.0625 C 27.597656 15.0625 29.367188 13.289062 29.367188 10.429688 L 29.367188 8.886719 C 29.363281 6.027344 27.597656 4.253906 24.757812 4.253906 Z M 27.464844 10.535156 C 27.464844 12.433594 26.476562 13.523438 24.757812 13.523438 C 23.035156 13.523438 22.050781 12.433594 22.050781 10.535156 L 22.050781 8.78125 C 22.050781 6.882812 23.039062 5.796875 24.757812 5.796875 C 26.476562 5.796875 27.464844 6.882812 27.464844 8.78125 Z M 35.144531 7.011719 C 34.175781 7.011719 33.339844 7.410156 32.90625 8.082031 L 32.707031 8.386719 L 32.707031 7.191406 L 30.957031 7.191406 L 30.957031 17.484375 L 32.796875 17.484375 L 32.796875 13.757812 L 32.996094 14.050781 C 33.410156 14.664062 34.21875 15.03125 35.160156 15.03125 C 36.746094 15.03125 38.34375 13.992188 38.34375 11.671875 L 38.34375 10.371094 C 38.34375 8.699219 37.359375 7.011719 35.144531 7.011719 Z M 36.503906 11.582031 C 36.503906 12.816406 35.785156 13.582031 34.628906 13.582031 C 33.550781 13.582031 32.800781 12.773438 32.800781 11.613281 L 32.800781 10.460938 C 32.800781 9.289062 33.558594 8.460938 34.644531 8.460938 C 35.792969 8.460938 36.507812 9.226562 36.507812 10.460938 Z M 59.816406 4.46875 L 56.105469 14.851562 L 57.972656 14.851562 L 58.683594 12.625 L 62.953125 12.625 L 62.960938 12.648438 L 63.664062 14.851562 L 65.53125 14.851562 L 61.8125 4.464844 Z M 59.140625 11.160156 L 60.816406 5.910156 L 62.472656 11.160156 Z M 59.140625 11.160156 "/>
<path style=" stroke:none;fill-rule:nonzero;fill:rgb(0%,0%,0%);fill-opacity:1;" d="M 16.550781 7.367188 C 16.957031 6.140625 16.820312 4.796875 16.167969 3.683594 C 15.1875 1.976562 13.214844 1.097656 11.292969 1.507812 C 10.4375 0.542969 9.207031 -0.0078125 7.917969 0 C 5.949219 -0.00390625 4.207031 1.265625 3.601562 3.140625 C 2.339844 3.402344 1.25 4.195312 0.609375 5.316406 C -0.375 7.023438 -0.152344 9.171875 1.167969 10.632812 C 0.761719 11.859375 0.902344 13.199219 1.550781 14.3125 C 2.53125 16.023438 4.503906 16.902344 6.429688 16.492188 C 7.285156 17.457031 8.511719 18.007812 9.800781 18 C 11.769531 18.003906 13.511719 16.734375 14.117188 14.859375 C 15.378906 14.597656 16.46875 13.804688 17.105469 12.683594 C 18.097656 10.980469 17.871094 8.828125 16.550781 7.367188 Z M 9.800781 16.824219 C 9.011719 16.828125 8.25 16.550781 7.644531 16.042969 C 7.671875 16.027344 7.722656 16.003906 7.753906 15.984375 L 11.332031 13.914062 C 11.515625 13.808594 11.625 13.613281 11.625 13.40625 L 11.625 8.351562 L 13.136719 9.222656 C 13.152344 9.234375 13.164062 9.25 13.167969 9.265625 L 13.167969 13.449219 C 13.167969 15.3125 11.660156 16.824219 9.800781 16.824219 Z M 2.570312 13.730469 C 2.175781 13.046875 2.03125 12.25 2.167969 11.472656 C 2.191406 11.488281 2.238281 11.515625 2.273438 11.535156 L 5.851562 13.605469 C 6.03125 13.710938 6.257812 13.710938 6.4375 13.605469 L 10.804688 11.074219 L 10.804688 12.824219 C 10.804688 12.84375 10.796875 12.859375 10.78125 12.871094 L 7.164062 14.960938 C 5.554688 15.890625 3.5 15.339844 2.570312 13.726562 Z M 1.632812 5.90625 C 2.023438 5.222656 2.644531 4.699219 3.382812 4.425781 L 3.382812 8.6875 C 3.382812 8.898438 3.496094 9.09375 3.675781 9.195312 L 8.042969 11.722656 L 6.527344 12.601562 C 6.511719 12.609375 6.492188 12.613281 6.476562 12.605469 L 2.859375 10.511719 C 1.25 9.582031 0.699219 7.519531 1.628906 5.90625 Z M 14.050781 8.800781 L 9.683594 6.273438 L 11.195312 5.398438 C 11.207031 5.390625 11.226562 5.386719 11.246094 5.394531 L 14.859375 7.488281 C 15.992188 8.140625 16.640625 9.390625 16.53125 10.695312 C 16.417969 12 15.566406 13.121094 14.339844 13.574219 L 14.339844 9.3125 C 14.34375 9.101562 14.230469 8.90625 14.046875 8.800781 Z M 15.554688 6.53125 C 15.527344 6.515625 15.480469 6.488281 15.449219 6.46875 L 11.871094 4.398438 C 11.691406 4.292969 11.464844 4.292969 11.285156 4.398438 L 6.917969 6.921875 L 6.917969 5.175781 C 6.917969 5.15625 6.925781 5.140625 6.9375 5.128906 L 10.554688 3.039062 C 11.6875 2.386719 13.089844 2.445312 14.164062 3.195312 C 15.234375 3.941406 15.773438 5.242188 15.554688 6.53125 Z M 6.09375 9.648438 L 4.582031 8.773438 C 4.566406 8.765625 4.554688 8.75 4.550781 8.734375 L 4.550781 4.550781 C 4.550781 3.242188 5.304688 2.050781 6.488281 1.496094 C 7.671875 0.9375 9.070312 1.117188 10.070312 1.957031 C 10.046875 1.972656 10 1.996094 9.964844 2.015625 L 6.386719 4.085938 C 6.203125 4.191406 6.09375 4.386719 6.09375 4.59375 Z M 6.914062 7.875 L 8.859375 6.75 L 10.804688 7.875 L 10.804688 10.125 L 8.859375 11.25 L 6.914062 10.125 Z M 6.914062 7.875 "/>
</g>
</svg>
