<?xml version="1.0" encoding="UTF-8"?>
<svg xmlns="http://www.w3.org/2000/svg" xmlns:xlink="http://www.w3.org/1999/xlink" width="px" height="48px" viewBox="0 0 80 48" version="1.1">
<g id="surface1">
<path style=" stroke:none;fill-rule:nonzero;fill:rgb(0%,0%,0%);fill-opacity:1;" d="M 22.738281 17.511719 C 22.738281 18.488281 22.84375 19.277344 23.027344 19.859375 C 23.238281 20.441406 23.5 21.074219 23.867188 21.757812 C 24 21.96875 24.050781 22.179688 24.050781 22.363281 C 24.050781 22.628906 23.894531 22.890625 23.550781 23.15625 L 21.894531 24.265625 C 21.65625 24.421875 21.421875 24.5 21.210938 24.5 C 20.949219 24.5 20.683594 24.371094 20.421875 24.132812 C 20.050781 23.734375 19.738281 23.3125 19.472656 22.890625 C 19.210938 22.445312 18.949219 21.941406 18.65625 21.335938 C 16.605469 23.761719 14.027344 24.976562 10.921875 24.976562 C 8.710938 24.976562 6.949219 24.34375 5.65625 23.078125 C 4.367188 21.8125 3.710938 20.125 3.710938 18.011719 C 3.710938 15.769531 4.5 13.953125 6.105469 12.582031 C 7.710938 11.207031 9.84375 10.523438 12.550781 10.523438 C 13.449219 10.523438 14.367188 10.601562 15.34375 10.734375 C 16.316406 10.867188 17.316406 11.078125 18.367188 11.3125 L 18.367188 9.390625 C 18.367188 7.382812 17.949219 5.988281 17.132812 5.167969 C 16.289062 4.351562 14.867188 3.957031 12.84375 3.957031 C 11.921875 3.957031 10.972656 4.0625 10 4.300781 C 9.027344 4.535156 8.078125 4.828125 7.15625 5.195312 C 6.738281 5.378906 6.421875 5.484375 6.238281 5.539062 C 6.050781 5.589844 5.921875 5.617188 5.816406 5.617188 C 5.449219 5.617188 5.261719 5.355469 5.261719 4.800781 L 5.261719 3.507812 C 5.261719 3.085938 5.316406 2.769531 5.449219 2.585938 C 5.578125 2.398438 5.816406 2.214844 6.183594 2.03125 C 7.105469 1.554688 8.210938 1.160156 9.5 0.84375 C 10.789062 0.5 12.15625 0.34375 13.605469 0.34375 C 16.738281 0.34375 19.027344 1.054688 20.5 2.480469 C 21.949219 3.902344 22.683594 6.066406 22.683594 8.96875 L 22.683594 17.511719 Z M 12.050781 21.519531 C 12.921875 21.519531 13.816406 21.363281 14.761719 21.046875 C 15.710938 20.730469 16.550781 20.148438 17.261719 19.359375 C 17.683594 18.855469 18 18.304688 18.15625 17.671875 C 18.316406 17.039062 18.421875 16.273438 18.421875 15.375 L 18.421875 14.269531 C 17.65625 14.082031 16.84375 13.925781 16 13.820312 C 15.15625 13.714844 14.34375 13.660156 13.527344 13.660156 C 11.761719 13.660156 10.472656 14.003906 9.605469 14.714844 C 8.738281 15.429688 8.316406 16.429688 8.316406 17.75 C 8.316406 18.988281 8.632812 19.910156 9.289062 20.546875 C 9.921875 21.203125 10.84375 21.519531 12.050781 21.519531 Z M 33.183594 24.371094 C 32.710938 24.371094 32.394531 24.289062 32.183594 24.105469 C 31.972656 23.945312 31.789062 23.578125 31.632812 23.078125 L 25.449219 2.691406 C 25.289062 2.164062 25.210938 1.820312 25.210938 1.636719 C 25.210938 1.214844 25.421875 0.976562 25.84375 0.976562 L 28.421875 0.976562 C 28.921875 0.976562 29.261719 1.054688 29.449219 1.238281 C 29.65625 1.398438 29.816406 1.765625 29.972656 2.269531 L 34.394531 19.726562 L 38.5 2.269531 C 38.632812 1.742188 38.789062 1.398438 39 1.238281 C 39.210938 1.082031 39.578125 0.976562 40.050781 0.976562 L 42.15625 0.976562 C 42.65625 0.976562 43 1.054688 43.210938 1.238281 C 43.421875 1.398438 43.605469 1.765625 43.710938 2.269531 L 47.867188 19.9375 L 52.421875 2.269531 C 52.578125 1.742188 52.761719 1.398438 52.949219 1.238281 C 53.15625 1.082031 53.5 0.976562 53.972656 0.976562 L 56.421875 0.976562 C 56.84375 0.976562 57.078125 1.1875 57.078125 1.636719 C 57.078125 1.765625 57.050781 1.898438 57.027344 2.058594 C 57 2.214844 56.949219 2.425781 56.84375 2.714844 L 50.5 23.101562 C 50.34375 23.628906 50.15625 23.972656 49.949219 24.132812 C 49.738281 24.289062 49.394531 24.394531 48.949219 24.394531 L 46.683594 24.394531 C 46.183594 24.394531 45.84375 24.316406 45.632812 24.132812 C 45.421875 23.945312 45.238281 23.605469 45.132812 23.078125 L 41.050781 6.066406 L 37 23.050781 C 36.867188 23.578125 36.710938 23.921875 36.5 24.105469 C 36.289062 24.289062 35.921875 24.371094 35.449219 24.371094 Z M 67 25.082031 C 65.632812 25.082031 64.261719 24.921875 62.949219 24.605469 C 61.632812 24.289062 60.605469 23.945312 59.921875 23.550781 C 59.5 23.3125 59.210938 23.050781 59.105469 22.8125 C 59 22.574219 58.949219 22.3125 58.949219 22.074219 L 58.949219 20.730469 C 58.949219 20.175781 59.15625 19.910156 59.550781 19.910156 C 59.710938 19.910156 59.867188 19.9375 60.027344 19.992188 C 60.183594 20.042969 60.421875 20.148438 60.683594 20.253906 C 61.578125 20.652344 62.550781 20.96875 63.578125 21.179688 C 64.632812 21.390625 65.65625 21.496094 66.710938 21.496094 C 68.367188 21.496094 69.65625 21.203125 70.550781 20.625 C 71.449219 20.042969 71.921875 19.199219 71.921875 18.117188 C 71.921875 17.378906 71.683594 16.773438 71.210938 16.273438 C 70.738281 15.769531 69.84375 15.324219 68.550781 14.902344 L 64.738281 13.714844 C 62.816406 13.109375 61.394531 12.210938 60.527344 11.023438 C 59.65625 9.863281 59.210938 8.570312 59.210938 7.199219 C 59.210938 6.09375 59.449219 5.117188 59.921875 4.273438 C 60.394531 3.429688 61.027344 2.691406 61.816406 2.109375 C 62.605469 1.503906 63.5 1.054688 64.550781 0.738281 C 65.605469 0.421875 66.710938 0.289062 67.867188 0.289062 C 68.449219 0.289062 69.050781 0.316406 69.632812 0.394531 C 70.238281 0.476562 70.789062 0.582031 71.34375 0.6875 C 71.867188 0.816406 72.367188 0.949219 72.84375 1.109375 C 73.316406 1.265625 73.683594 1.425781 73.949219 1.582031 C 74.316406 1.792969 74.578125 2.003906 74.738281 2.242188 C 74.894531 2.453125 74.972656 2.742188 74.972656 3.113281 L 74.972656 4.351562 C 74.972656 4.90625 74.761719 5.195312 74.367188 5.195312 C 74.15625 5.195312 73.816406 5.089844 73.367188 4.878906 C 71.867188 4.195312 70.183594 3.851562 68.316406 3.851562 C 66.816406 3.851562 65.632812 4.089844 64.816406 4.589844 C 64 5.089844 63.578125 5.855469 63.578125 6.9375 C 63.578125 7.675781 63.84375 8.308594 64.367188 8.808594 C 64.894531 9.308594 65.867188 9.8125 67.261719 10.257812 L 71 11.445312 C 72.894531 12.054688 74.261719 12.898438 75.078125 13.976562 C 75.894531 15.058594 76.289062 16.300781 76.289062 17.671875 C 76.289062 18.804688 76.050781 19.832031 75.605469 20.730469 C 75.132812 21.625 74.5 22.417969 73.683594 23.050781 C 72.867188 23.710938 71.894531 24.183594 70.761719 24.527344 C 69.578125 24.898438 68.34375 25.082031 67 25.082031 Z M 67 25.082031 "/>
<path style=" stroke:none;fill-rule:nonzero;fill:rgb(0%,0%,0%);fill-opacity:1;" d="M 71.972656 37.898438 C 63.316406 44.308594 50.738281 47.710938 39.921875 47.710938 C 24.761719 47.710938 11.105469 42.09375 0.789062 32.757812 C -0.0273438 32.019531 0.710938 31.015625 1.683594 31.59375 C 12.84375 38.082031 26.605469 42.011719 40.84375 42.011719 C 50.449219 42.011719 61 40.007812 70.710938 35.894531 C 72.15625 35.234375 73.394531 36.84375 71.972656 37.898438 Z M 71.972656 37.898438 "/>
<path style=" stroke:none;fill-rule:nonzero;fill:rgb(0%,0%,0%);fill-opacity:1;" d="M 75.578125 33.785156 C 74.472656 32.359375 68.261719 33.097656 65.449219 33.441406 C 64.605469 33.546875 64.472656 32.808594 65.238281 32.253906 C 70.183594 28.773438 78.316406 29.777344 79.261719 30.9375 C 80.210938 32.125 79 40.273438 74.367188 44.175781 C 73.65625 44.78125 72.972656 44.464844 73.289062 43.675781 C 74.34375 41.0625 76.683594 35.183594 75.578125 33.785156 Z M 75.578125 33.785156 "/>
</g>
</svg>
