<?xml version="1.0" encoding="UTF-8"?>
<svg xmlns="http://www.w3.org/2000/svg" xmlns:xlink="http://www.w3.org/1999/xlink" width="px" height="48px" viewBox="0 0 48 48" version="1.1">
<defs>
<linearGradient id="linear0" gradientUnits="userSpaceOnUse" x1="-1032.171997" y1="145.311996" x2="-1059.213013" y2="65.426003" gradientTransform="matrix(0.5,0,0,-0.5,537.5,79)">
<stop offset="0" style="stop-color:rgb(6.666667%,29.019608%,54.509804%);stop-opacity:1;"/>
<stop offset="1" style="stop-color:rgb(2.352941%,41.176471%,73.72549%);stop-opacity:1;"/>
</linearGradient>
<linearGradient id="linear1" gradientUnits="userSpaceOnUse" x1="-1023.724976" y1="108.083" x2="-1029.97998" y2="105.968002" gradientTransform="matrix(0.5,0,0,-0.5,537.5,79)">
<stop offset="0" style="stop-color:rgb(0%,0%,0%);stop-opacity:0.301961;"/>
<stop offset="0.071" style="stop-color:rgb(0%,0%,0%);stop-opacity:0.2;"/>
<stop offset="0.321" style="stop-color:rgb(0%,0%,0%);stop-opacity:0.101961;"/>
<stop offset="0.623" style="stop-color:rgb(0%,0%,0%);stop-opacity:0.0509804;"/>
<stop offset="1" style="stop-color:rgb(0%,0%,0%);stop-opacity:0;"/>
</linearGradient>
<linearGradient id="linear2" gradientUnits="userSpaceOnUse" x1="-1027.165039" y1="147.641998" x2="-997.481995" y2="68.560997" gradientTransform="matrix(0.5,0,0,-0.5,537.5,79)">
<stop offset="0" style="stop-color:rgb(23.529412%,79.607843%,95.686275%);stop-opacity:1;"/>
<stop offset="1" style="stop-color:rgb(15.686275%,57.254902%,87.45098%);stop-opacity:1;"/>
</linearGradient>
</defs>
<g id="surface1">
<path style=" stroke:none;fill-rule:nonzero;fill:url(#linear0);" d="M 16.667969 3.273438 L 29.6875 3.273438 L 16.171875 43.316406 C 15.886719 44.160156 15.097656 44.726562 14.207031 44.726562 L 4.074219 44.726562 C 3.40625 44.726562 2.78125 44.40625 2.390625 43.863281 C 2 43.320312 1.898438 42.625 2.109375 41.992188 L 14.703125 4.683594 C 14.988281 3.839844 15.777344 3.273438 16.667969 3.273438 Z M 16.667969 3.273438 "/>
<path style=" stroke:none;fill-rule:nonzero;fill:rgb(0%,47.058824%,83.137256%);fill-opacity:1;" d="M 35.585938 30.128906 L 14.941406 30.128906 C 14.550781 30.128906 14.195312 30.371094 14.050781 30.734375 C 13.910156 31.101562 14.003906 31.515625 14.289062 31.785156 L 27.554688 44.167969 C 27.941406 44.527344 28.449219 44.726562 28.980469 44.726562 L 40.667969 44.726562 Z M 35.585938 30.128906 "/>
<path style=" stroke:none;fill-rule:nonzero;fill:url(#linear1);" d="M 16.667969 3.273438 C 15.769531 3.269531 14.96875 3.851562 14.699219 4.710938 L 2.125 41.957031 C 1.898438 42.59375 1.992188 43.300781 2.382812 43.851562 C 2.773438 44.402344 3.40625 44.730469 4.078125 44.726562 L 14.472656 44.726562 C 15.261719 44.585938 15.914062 44.03125 16.179688 43.277344 L 18.683594 35.890625 L 27.640625 44.242188 C 28.015625 44.550781 28.488281 44.722656 28.972656 44.726562 L 40.621094 44.726562 L 35.511719 30.128906 L 20.621094 30.132812 L 29.734375 3.273438 Z M 16.667969 3.273438 "/>
<path style=" stroke:none;fill-rule:nonzero;fill:url(#linear2);" d="M 33.296875 4.683594 C 33.011719 3.839844 32.222656 3.273438 31.332031 3.273438 L 16.824219 3.273438 C 17.714844 3.273438 18.503906 3.839844 18.789062 4.683594 L 31.378906 41.992188 C 31.59375 42.625 31.488281 43.320312 31.101562 43.863281 C 30.710938 44.40625 30.082031 44.726562 29.414062 44.726562 L 43.925781 44.726562 C 44.59375 44.726562 45.21875 44.40625 45.609375 43.863281 C 46 43.320312 46.101562 42.625 45.890625 41.992188 Z M 33.296875 4.683594 "/>
</g>
</svg>
