<?xml version="1.0" encoding="UTF-8"?>
<svg xmlns="http://www.w3.org/2000/svg" xmlns:xlink="http://www.w3.org/1999/xlink" width="px" height="48px" viewBox="0 0 48 48" version="1.1">
<g id="surface1">
<path style=" stroke:none;fill-rule:nonzero;fill:rgb(100%,100%,100%);fill-opacity:1;" d="M 7.199219 0 L 40.800781 0 C 44.777344 0 48 3.222656 48 7.199219 L 48 40.800781 C 48 44.777344 44.777344 48 40.800781 48 L 7.199219 48 C 3.222656 48 0 44.777344 0 40.800781 L 0 7.199219 C 0 3.222656 3.222656 0 7.199219 0 Z M 7.199219 0 "/>
<path style=" stroke:none;fill-rule:nonzero;fill:rgb(95.294118%,50.196081%,12.54902%);fill-opacity:1;" d="M 31.03125 30.5625 C 32.0625 28.125 30.65625 27 29.25 27 L 15.375 26.8125 C 15 26.8125 15 26.25 15.46875 26.15625 L 29.53125 25.96875 C 31.125 25.875 33 24.5625 33.5625 22.875 C 33.5625 22.875 34.5 20.90625 34.40625 20.625 C 33.570312 16.597656 30.140625 13.632812 26.035156 13.390625 C 21.929688 13.152344 18.175781 15.695312 16.875 19.59375 C 13.3125 17.25 9.5625 20.4375 10.40625 23.90625 C 5.90625 24.1875 4.3125 28.21875 4.78125 30.65625 C 4.78125 30.75 4.875 30.84375 5.0625 30.84375 L 30.75 30.84375 C 30.84375 30.84375 31.03125 30.75 31.03125 30.5625 Z M 31.03125 30.5625 "/>
<path style=" stroke:none;fill-rule:nonzero;fill:rgb(98.039216%,68.235296%,25.098041%);fill-opacity:1;" d="M 35.71875 21 C 35.34375 21 35.15625 20.90625 35.0625 21.09375 L 34.59375 23.0625 C 34.125 24.5625 34.875 25.875 36.46875 25.96875 L 39.46875 26.15625 C 39.84375 26.15625 39.84375 26.71875 39.375 26.8125 L 36.28125 26.90625 C 32.90625 27.28125 31.96875 30.5625 31.96875 30.5625 C 31.96875 30.75 31.96875 30.84375 32.15625 30.84375 L 42.75 30.84375 L 43.03125 30.65625 C 43.675781 28.367188 43.214844 25.90625 41.777344 24.007812 C 40.339844 22.113281 38.097656 21 35.71875 21 "/>
</g>
</svg>
