<?xml version="1.0" encoding="UTF-8"?>
<svg xmlns="http://www.w3.org/2000/svg" xmlns:xlink="http://www.w3.org/1999/xlink" width="px" height="48px" viewBox="0 0 64 48" version="1.1">
<g id="surface1">
<path style=" stroke:none;fill-rule:nonzero;fill:rgb(0%,50.196081%,100%);fill-opacity:1;" d="M 31.953125 25.859375 L 31.953125 32.035156 C 42.421875 32.035156 50.570312 21.921875 47.144531 10.953125 C 45.648438 6.15625 41.839844 2.347656 37.046875 0.851562 C 26.078125 -2.574219 15.964844 5.578125 15.964844 16.046875 L 22.152344 16.046875 C 22.15625 16.046875 22.15625 16.046875 22.15625 16.046875 C 22.15625 9.476562 28.660156 4.394531 35.566406 6.902344 C 38.125 7.832031 40.164062 9.871094 41.09375 12.429688 C 43.601562 19.332031 38.53125 25.832031 31.964844 25.84375 L 31.964844 19.6875 C 31.964844 19.6875 31.964844 19.683594 31.964844 19.683594 L 25.792969 19.683594 C 25.792969 19.683594 25.792969 19.6875 25.792969 19.6875 L 25.792969 25.859375 Z M 25.792969 30.601562 L 21.046875 30.601562 L 21.046875 25.859375 L 25.792969 25.859375 Z M 21.050781 25.859375 L 17.078125 25.859375 C 17.074219 25.859375 17.074219 25.855469 17.074219 25.855469 L 17.074219 21.882812 C 17.074219 21.882812 17.074219 21.878906 17.078125 21.878906 L 21.046875 21.878906 C 21.050781 21.878906 21.050781 21.882812 21.050781 21.882812 Z M 21.050781 25.859375 "/>
<path style=" stroke:none;fill-rule:nonzero;fill:rgb(0%,50.196081%,100%);fill-opacity:1;" d="M 5.523438 38.300781 C 4.71875 37.742188 3.71875 37.457031 2.546875 37.457031 L 0 37.457031 L 0 45.539062 L 2.546875 45.539062 C 3.714844 45.539062 4.714844 45.242188 5.523438 44.652344 C 5.964844 44.339844 6.308594 43.90625 6.550781 43.355469 C 6.792969 42.8125 6.914062 42.167969 6.914062 41.445312 C 6.914062 40.734375 6.792969 40.097656 6.550781 39.5625 C 6.308594 39.019531 5.964844 38.597656 5.523438 38.300781 Z M 1.488281 38.824219 L 2.289062 38.824219 C 3.175781 38.824219 3.910156 39 4.464844 39.34375 C 5.082031 39.714844 5.394531 40.421875 5.394531 41.445312 C 5.394531 42.5 5.082031 43.238281 4.460938 43.644531 C 3.929688 43.996094 3.203125 44.175781 2.296875 44.175781 L 1.488281 44.175781 Z M 7.957031 45.539062 L 9.390625 45.539062 L 9.390625 39.847656 L 7.957031 39.847656 Z M 8.6875 37.359375 C 8.445312 37.359375 8.234375 37.445312 8.0625 37.617188 C 7.890625 37.777344 7.804688 37.988281 7.804688 38.230469 C 7.804688 38.476562 7.890625 38.6875 8.0625 38.859375 C 8.234375 39.03125 8.445312 39.117188 8.6875 39.117188 C 8.933594 39.117188 9.144531 39.03125 9.316406 38.859375 C 9.488281 38.6875 9.574219 38.476562 9.574219 38.230469 C 9.574219 37.988281 9.484375 37.78125 9.316406 37.617188 C 9.144531 37.445312 8.933594 37.359375 8.6875 37.359375 Z M 14.59375 40.324219 C 14.160156 39.9375 13.679688 39.714844 13.15625 39.714844 C 12.367188 39.714844 11.710938 39.988281 11.203125 40.527344 C 10.691406 41.0625 10.433594 41.75 10.433594 42.574219 C 10.433594 43.375 10.6875 44.0625 11.191406 44.613281 C 11.703125 45.144531 12.363281 45.414062 13.15625 45.414062 C 13.710938 45.414062 14.183594 45.257812 14.570312 44.957031 L 14.570312 45.085938 C 14.570312 45.558594 14.445312 45.925781 14.195312 46.179688 C 13.945312 46.429688 13.601562 46.558594 13.167969 46.558594 C 12.507812 46.558594 12.09375 46.296875 11.589844 45.617188 L 10.613281 46.554688 L 10.640625 46.589844 C 10.847656 46.886719 11.171875 47.175781 11.597656 47.449219 C 12.023438 47.726562 12.558594 47.863281 13.191406 47.863281 C 14.039062 47.863281 14.730469 47.601562 15.234375 47.085938 C 15.746094 46.566406 16.003906 45.871094 16.003906 45.015625 L 16.003906 39.847656 L 14.59375 39.847656 Z M 14.21875 43.683594 C 13.964844 43.96875 13.644531 44.109375 13.234375 44.109375 C 12.824219 44.109375 12.503906 43.96875 12.257812 43.6875 C 12.011719 43.402344 11.886719 43.027344 11.886719 42.574219 C 11.886719 42.109375 12.011719 41.730469 12.257812 41.445312 C 12.5 41.164062 12.828125 41.019531 13.234375 41.019531 C 13.644531 41.019531 13.964844 41.160156 14.21875 41.445312 C 14.464844 41.730469 14.59375 42.109375 14.59375 42.574219 C 14.59375 43.027344 14.464844 43.402344 14.21875 43.683594 Z M 17.230469 45.539062 L 18.660156 45.539062 L 18.660156 39.847656 L 17.230469 39.847656 Z M 17.957031 37.359375 C 17.714844 37.359375 17.503906 37.445312 17.332031 37.617188 C 17.160156 37.777344 17.074219 37.988281 17.074219 38.230469 C 17.074219 38.476562 17.160156 38.6875 17.332031 38.859375 C 17.503906 39.03125 17.714844 39.117188 17.957031 39.117188 C 18.203125 39.117188 18.414062 39.03125 18.585938 38.859375 C 18.757812 38.6875 18.84375 38.476562 18.84375 38.230469 C 18.84375 37.988281 18.757812 37.78125 18.585938 37.617188 C 18.414062 37.445312 18.203125 37.359375 17.957031 37.359375 Z M 21.800781 38.308594 L 20.390625 38.308594 L 20.390625 39.847656 L 19.570312 39.847656 L 19.570312 41.152344 L 20.390625 41.152344 L 20.390625 43.519531 C 20.390625 44.257812 20.539062 44.789062 20.832031 45.089844 C 21.121094 45.398438 21.640625 45.550781 22.375 45.550781 C 22.605469 45.550781 22.839844 45.542969 23.070312 45.527344 L 23.132812 45.523438 L 23.132812 44.21875 L 22.644531 44.246094 C 22.300781 44.246094 22.074219 44.1875 21.964844 44.066406 C 21.855469 43.949219 21.800781 43.695312 21.800781 43.316406 L 21.800781 41.152344 L 23.132812 41.152344 L 23.132812 39.847656 L 21.800781 39.847656 Z M 28.050781 40.273438 C 27.617188 39.902344 27.015625 39.714844 26.265625 39.714844 C 25.789062 39.714844 25.34375 39.820312 24.941406 40.023438 C 24.570312 40.214844 24.203125 40.527344 23.96875 40.9375 L 23.984375 40.953125 L 24.902344 41.832031 C 25.277344 41.230469 25.699219 41.019531 26.257812 41.019531 C 26.554688 41.019531 26.804688 41.101562 26.996094 41.257812 C 27.183594 41.417969 27.277344 41.617188 27.277344 41.871094 L 27.277344 42.144531 C 26.921875 42.039062 26.566406 41.984375 26.222656 41.984375 C 25.511719 41.984375 24.929688 42.152344 24.5 42.480469 C 24.0625 42.816406 23.839844 43.296875 23.839844 43.90625 C 23.839844 44.441406 24.027344 44.875 24.398438 45.199219 C 24.769531 45.507812 25.234375 45.667969 25.78125 45.667969 C 26.324219 45.667969 26.835938 45.449219 27.300781 45.070312 L 27.300781 45.539062 L 28.710938 45.539062 L 28.710938 41.878906 C 28.710938 41.1875 28.488281 40.648438 28.050781 40.273438 Z M 25.507812 43.363281 C 25.667969 43.25 25.898438 43.195312 26.191406 43.195312 C 26.535156 43.195312 26.898438 43.265625 27.277344 43.402344 L 27.277344 43.957031 C 26.964844 44.25 26.550781 44.394531 26.039062 44.394531 C 25.792969 44.394531 25.601562 44.339844 25.46875 44.230469 C 25.335938 44.125 25.273438 43.988281 25.273438 43.816406 C 25.273438 43.621094 25.351562 43.472656 25.507812 43.363281 Z M 29.851562 45.539062 L 31.285156 45.539062 L 31.285156 37.457031 L 29.851562 37.457031 Z M 36.480469 45.660156 C 34.183594 45.660156 32.3125 43.792969 32.3125 41.496094 C 32.3125 39.199219 34.183594 37.328125 36.480469 37.328125 C 38.777344 37.328125 40.648438 39.199219 40.648438 41.496094 C 40.648438 43.792969 38.777344 45.660156 36.480469 45.660156 Z M 36.480469 38.796875 C 34.992188 38.796875 33.78125 40.007812 33.78125 41.496094 C 33.78125 42.984375 34.992188 44.195312 36.480469 44.195312 C 37.96875 44.195312 39.179688 42.984375 39.179688 41.496094 C 39.179688 40.007812 37.96875 38.796875 36.480469 38.796875 Z M 45.753906 43.503906 C 45.5 43.792969 45.238281 44.039062 45.035156 44.171875 C 44.835938 44.296875 44.585938 44.363281 44.292969 44.363281 C 43.871094 44.363281 43.53125 44.207031 43.253906 43.890625 C 42.980469 43.578125 42.839844 43.171875 42.839844 42.6875 C 42.839844 42.203125 42.976562 41.800781 43.25 41.488281 C 43.519531 41.171875 43.859375 41.019531 44.28125 41.019531 C 44.742188 41.019531 45.226562 41.308594 45.644531 41.800781 L 46.59375 40.890625 C 45.976562 40.089844 45.1875 39.714844 44.246094 39.714844 C 43.460938 39.714844 42.777344 40 42.222656 40.566406 C 41.667969 41.125 41.386719 41.839844 41.386719 42.6875 C 41.386719 43.535156 41.664062 44.25 42.21875 44.816406 C 42.773438 45.382812 43.457031 45.667969 44.246094 45.667969 C 45.285156 45.667969 46.121094 45.21875 46.6875 44.398438 Z M 51.632812 40.644531 C 51.429688 40.359375 51.152344 40.132812 50.8125 39.964844 C 50.46875 39.800781 50.070312 39.714844 49.628906 39.714844 C 48.828125 39.714844 48.175781 40.011719 47.683594 40.59375 C 47.207031 41.171875 46.964844 41.886719 46.964844 42.726562 C 46.964844 43.589844 47.230469 44.304688 47.753906 44.847656 C 48.273438 45.390625 48.96875 45.667969 49.820312 45.667969 C 50.789062 45.667969 51.578125 45.277344 52.175781 44.507812 L 52.210938 44.464844 L 51.273438 43.566406 C 51.1875 43.671875 51.066406 43.789062 50.953125 43.894531 C 50.8125 44.027344 50.679688 44.132812 50.539062 44.203125 C 50.324219 44.308594 50.082031 44.363281 49.8125 44.363281 C 49.417969 44.363281 49.089844 44.246094 48.835938 44.015625 C 48.601562 43.800781 48.464844 43.507812 48.429688 43.152344 L 52.222656 43.152344 L 52.238281 42.628906 C 52.238281 42.257812 52.1875 41.902344 52.085938 41.566406 C 51.988281 41.234375 51.835938 40.921875 51.632812 40.644531 Z M 48.503906 41.984375 C 48.570312 41.710938 48.699219 41.484375 48.878906 41.308594 C 49.070312 41.117188 49.324219 41.019531 49.628906 41.019531 C 49.976562 41.019531 50.246094 41.117188 50.425781 41.3125 C 50.597656 41.496094 50.691406 41.71875 50.710938 41.984375 Z M 57.136719 40.273438 C 56.699219 39.902344 56.101562 39.714844 55.351562 39.714844 C 54.875 39.714844 54.429688 39.820312 54.027344 40.023438 C 53.652344 40.214844 53.285156 40.527344 53.054688 40.9375 L 53.070312 40.953125 L 53.984375 41.832031 C 54.363281 41.230469 54.785156 41.019531 55.339844 41.019531 C 55.640625 41.019531 55.886719 41.101562 56.078125 41.257812 C 56.269531 41.417969 56.363281 41.617188 56.363281 41.871094 L 56.363281 42.144531 C 56.007812 42.039062 55.652344 41.984375 55.308594 41.984375 C 54.59375 41.984375 54.015625 42.152344 53.582031 42.480469 C 53.148438 42.816406 52.925781 43.296875 52.925781 43.90625 C 52.925781 44.441406 53.113281 44.875 53.480469 45.199219 C 53.855469 45.507812 54.320312 45.667969 54.863281 45.667969 C 55.410156 45.667969 55.921875 45.449219 56.382812 45.070312 L 56.382812 45.539062 L 57.792969 45.539062 L 57.792969 41.878906 C 57.792969 41.1875 57.570312 40.648438 57.136719 40.273438 Z M 54.589844 43.363281 C 54.753906 43.25 54.984375 43.195312 55.273438 43.195312 C 55.617188 43.195312 55.984375 43.265625 56.363281 43.402344 L 56.363281 43.957031 C 56.050781 44.25 55.632812 44.394531 55.125 44.394531 C 54.878906 44.394531 54.683594 44.339844 54.550781 44.230469 C 54.421875 44.125 54.359375 43.988281 54.359375 43.816406 C 54.359375 43.621094 54.433594 43.472656 54.589844 43.363281 Z M 63.304688 40.386719 C 62.90625 39.941406 62.34375 39.714844 61.636719 39.714844 C 61.070312 39.714844 60.609375 39.878906 60.261719 40.199219 L 60.261719 39.847656 L 58.859375 39.847656 L 58.859375 45.539062 L 60.289062 45.539062 L 60.289062 42.402344 C 60.289062 41.96875 60.394531 41.628906 60.59375 41.382812 C 60.796875 41.140625 61.074219 41.019531 61.445312 41.019531 C 61.769531 41.019531 62.015625 41.125 62.195312 41.34375 C 62.378906 41.5625 62.46875 41.863281 62.46875 42.242188 L 62.46875 45.539062 L 63.902344 45.539062 L 63.902344 42.242188 C 63.902344 41.453125 63.703125 40.828125 63.304688 40.386719 Z M 63.304688 40.386719 "/>
</g>
</svg>
