<?xml version="1.0" encoding="UTF-8"?>
<svg xmlns="http://www.w3.org/2000/svg" xmlns:xlink="http://www.w3.org/1999/xlink" width="px" height="48px" viewBox="0 0 48 48" version="1.1">
<g id="surface1">
<path style=" stroke:none;fill-rule:nonzero;fill:rgb(13.333334%,31.37255%,52.549022%);fill-opacity:1;" d="M 10.136719 37.417969 C 11.171875 38.0625 12.894531 38.78125 14.710938 38.78125 C 16.367188 38.78125 17.90625 38.300781 19.179688 37.484375 C 19.179688 37.484375 19.183594 37.484375 19.1875 37.480469 L 24 34.472656 L 24 45.332031 C 23.238281 45.332031 22.46875 45.125 21.800781 44.710938 Z M 10.136719 37.417969 "/>
<path style=" stroke:none;fill-rule:nonzero;fill:rgb(40.000001%,86.666667%,100%);fill-opacity:1;" d="M 20.941406 4.019531 L 0.941406 26.578125 C -0.601562 28.324219 -0.199219 30.957031 1.800781 32.207031 C 1.800781 32.207031 9.207031 36.835938 10.136719 37.417969 C 11.171875 38.0625 12.894531 38.78125 14.710938 38.78125 C 16.367188 38.78125 17.90625 38.300781 19.179688 37.484375 C 19.179688 37.484375 19.183594 37.484375 19.1875 37.480469 L 24 34.472656 L 12.363281 27.199219 L 24.003906 14.066406 L 24.003906 2.667969 C 22.871094 2.667969 21.742188 3.117188 20.945312 4.019531 Z M 20.941406 4.019531 "/>
<path style=" stroke:none;fill-rule:nonzero;fill:rgb(79.607844%,97.254902%,100%);fill-opacity:1;" d="M 12.363281 27.199219 L 12.5 27.28125 L 24 34.472656 L 24.003906 34.472656 L 24.003906 14.070312 L 24 14.066406 Z M 12.363281 27.199219 "/>
<path style=" stroke:none;fill-rule:nonzero;fill:rgb(2.745098%,27.843139%,57.647061%);fill-opacity:1;" d="M 46.199219 32.207031 C 48.199219 30.957031 48.601562 28.324219 47.058594 26.578125 L 33.9375 11.777344 C 32.878906 11.28125 31.691406 11 30.433594 11 C 27.96875 11 25.761719 12.0625 24.296875 13.734375 L 24.003906 14.0625 C 24.003906 14.0625 35.644531 27.195312 35.644531 27.195312 L 24.003906 34.46875 L 24.003906 45.332031 C 24.769531 45.332031 25.53125 45.121094 26.199219 44.707031 Z M 46.199219 32.207031 "/>
<path style=" stroke:none;fill-rule:nonzero;fill:rgb(0.784314%,58.039218%,89.411765%);fill-opacity:1;" d="M 24.003906 2.667969 L 24.003906 14.066406 C 24.003906 14.066406 24.292969 13.738281 24.292969 13.738281 C 25.761719 12.066406 27.964844 11.003906 30.433594 11.003906 C 31.691406 11.003906 32.875 11.289062 33.933594 11.777344 L 27.054688 4.019531 C 26.257812 3.121094 25.128906 2.667969 24 2.667969 Z M 24.003906 2.667969 "/>
<path style=" stroke:none;fill-rule:nonzero;fill:rgb(58.823532%,73.725492%,76.078433%);fill-opacity:1;" d="M 35.640625 27.199219 L 24.003906 14.070312 L 24.003906 34.46875 Z M 35.640625 27.199219 "/>
</g>
</svg>
