<?xml version="1.0" encoding="UTF-8"?>
<svg xmlns="http://www.w3.org/2000/svg" xmlns:xlink="http://www.w3.org/1999/xlink" width="px" height="48px" viewBox="0 0 48 48" version="1.1">
<g id="surface1">
<path style=" stroke:none;fill-rule:evenodd;fill:rgb(8.627451%,8.235294%,7.843138%);fill-opacity:1;" d="M 24 3 C 12.398438 3 3 12.390625 3 23.980469 C 3 33.25 9.019531 41.109375 17.359375 43.882812 C 18.410156 44.074219 18.796875 43.429688 18.796875 42.871094 C 18.796875 42.375 18.777344 41.054688 18.765625 39.304688 C 12.925781 40.570312 11.695312 36.492188 11.695312 36.492188 C 10.738281 34.066406 9.359375 33.421875 9.359375 33.421875 C 7.453125 32.121094 9.503906 32.148438 9.503906 32.148438 C 11.613281 32.296875 12.722656 34.308594 12.722656 34.308594 C 14.59375 37.519531 17.636719 36.589844 18.835938 36.054688 C 19.023438 34.699219 19.566406 33.773438 20.164062 33.25 C 15.503906 32.722656 10.601562 30.921875 10.601562 22.882812 C 10.601562 20.59375 11.421875 18.71875 12.761719 17.253906 C 12.546875 16.722656 11.824219 14.589844 12.972656 11.703125 C 12.972656 11.703125 14.730469 11.136719 18.742188 13.851562 C 20.457031 13.382812 22.222656 13.144531 24 13.144531 C 25.785156 13.152344 27.582031 13.382812 29.257812 13.851562 C 33.265625 11.136719 35.027344 11.699219 35.027344 11.699219 C 36.175781 14.589844 35.453125 16.722656 35.238281 17.25 C 36.582031 18.71875 37.398438 20.59375 37.398438 22.882812 C 37.398438 30.9375 32.484375 32.714844 27.808594 33.230469 C 28.558594 33.878906 29.230469 35.160156 29.230469 37.117188 C 29.230469 39.921875 29.203125 42.183594 29.203125 42.871094 C 29.203125 43.433594 29.585938 44.085938 30.652344 43.882812 C 39.21875 41.023438 44.996094 33.007812 45 23.980469 C 44.992188 12.386719 35.59375 2.996094 24 3 Z M 24 3 "/>
</g>
</svg>
