<?xml version="1.0" encoding="UTF-8"?>
<svg xmlns="http://www.w3.org/2000/svg" xmlns:xlink="http://www.w3.org/1999/xlink" width="px" height="48px" viewBox="0 0 195 48" version="1.1">
<g id="surface1">
<path style=" stroke:none;fill-rule:nonzero;fill:rgb(0%,0%,0%);fill-opacity:1;" d="M 139.0625 18.695312 C 136.191406 18.695312 134.144531 19.675781 133.136719 21.53125 L 132.597656 22.539062 L 132.597656 19.179688 L 127.925781 19.179688 L 127.925781 39.601562 L 132.839844 39.601562 L 132.839844 27.453125 C 132.839844 24.546875 134.417969 22.882812 137.164062 22.882812 C 139.785156 22.882812 141.289062 24.503906 141.289062 27.332031 L 141.289062 39.601562 L 146.203125 39.601562 L 146.203125 26.453125 C 146.203125 21.589844 143.535156 18.695312 139.0625 18.695312 Z M 115.234375 18.695312 C 109.4375 18.695312 105.847656 22.3125 105.847656 28.136719 L 105.847656 31.003906 C 105.847656 36.605469 109.480469 40.085938 115.328125 40.085938 C 119.238281 40.085938 121.980469 38.652344 123.707031 35.703125 L 120.660156 33.949219 C 119.386719 35.652344 117.347656 36.703125 115.328125 36.703125 C 112.367188 36.703125 110.601562 34.875 110.601562 31.8125 L 110.601562 31 L 124.316406 31 L 124.316406 27.613281 C 124.316406 22.1875 120.753906 18.695312 115.238281 18.695312 Z M 119.84375 27.699219 L 110.585938 27.699219 L 110.585938 27.210938 C 110.585938 23.847656 112.234375 21.992188 115.230469 21.992188 C 118.117188 21.992188 119.839844 23.820312 119.839844 26.882812 Z M 195 15.816406 L 195 11.910156 L 178.003906 11.910156 L 178.003906 15.816406 L 183.964844 15.816406 L 183.964844 35.6875 L 178.003906 35.6875 L 178.003906 39.59375 L 195 39.59375 L 195 35.6875 L 189.039062 35.6875 L 189.039062 15.816406 Z M 66.132812 11.347656 C 58.542969 11.347656 53.820312 16.078125 53.820312 23.695312 L 53.820312 27.816406 C 53.820312 35.433594 58.539062 40.167969 66.132812 40.167969 C 73.722656 40.167969 78.441406 35.433594 78.441406 27.816406 L 78.441406 23.695312 C 78.4375 16.070312 73.714844 11.347656 66.132812 11.347656 Z M 73.363281 28.097656 C 73.363281 33.15625 70.726562 36.058594 66.132812 36.058594 C 61.535156 36.058594 58.902344 33.15625 58.902344 28.097656 L 58.902344 23.414062 C 58.902344 18.355469 61.539062 15.453125 66.132812 15.453125 C 70.726562 15.453125 73.363281 18.355469 73.363281 23.414062 Z M 93.875 18.695312 C 91.296875 18.695312 89.0625 19.761719 87.898438 21.550781 L 87.371094 22.367188 L 87.371094 19.179688 L 82.699219 19.179688 L 82.699219 46.628906 L 87.613281 46.628906 L 87.613281 36.6875 L 88.140625 37.464844 C 89.246094 39.105469 91.402344 40.085938 93.917969 40.085938 C 98.152344 40.085938 102.429688 37.316406 102.429688 31.125 L 102.429688 27.652344 C 102.429688 23.195312 99.792969 18.695312 93.875 18.695312 Z M 97.511719 30.886719 C 97.511719 34.175781 95.59375 36.222656 92.503906 36.222656 C 89.625 36.222656 87.617188 34.0625 87.617188 30.96875 L 87.617188 27.894531 C 87.617188 24.765625 89.644531 22.5625 92.546875 22.5625 C 95.613281 22.5625 97.515625 24.605469 97.515625 27.894531 Z M 159.785156 11.914062 L 149.871094 39.601562 L 154.863281 39.601562 L 156.761719 33.667969 L 168.160156 33.667969 L 168.179688 33.726562 L 170.058594 39.601562 L 175.046875 39.601562 L 165.113281 11.910156 Z M 157.980469 29.761719 L 162.453125 15.761719 L 166.878906 29.761719 Z M 157.980469 29.761719 "/>
<path style=" stroke:none;fill-rule:nonzero;fill:rgb(0%,0%,0%);fill-opacity:1;" d="M 44.210938 19.640625 C 45.300781 16.375 44.925781 12.796875 43.183594 9.824219 C 40.566406 5.269531 35.304688 2.925781 30.167969 4.023438 C 27.882812 1.445312 24.59375 -0.0195312 21.152344 0 C 15.894531 -0.0117188 11.234375 3.375 9.621094 8.378906 C 6.246094 9.070312 3.335938 11.183594 1.628906 14.175781 C -1.003906 18.726562 -0.402344 24.453125 3.117188 28.355469 C 2.035156 31.621094 2.410156 35.195312 4.144531 38.164062 C 6.761719 42.726562 12.03125 45.078125 17.175781 43.976562 C 19.457031 46.550781 22.738281 48.015625 26.179688 48 C 31.433594 48.011719 36.097656 44.625 37.710938 39.621094 C 41.082031 38.929688 43.996094 36.816406 45.699219 33.824219 C 48.339844 29.277344 47.738281 23.542969 44.210938 19.640625 Z M 26.179688 44.867188 C 24.074219 44.871094 22.039062 44.132812 20.425781 42.78125 C 20.496094 42.742188 20.632812 42.671875 20.714844 42.621094 L 30.269531 37.105469 C 30.757812 36.824219 31.058594 36.304688 31.054688 35.746094 L 31.054688 22.269531 L 35.089844 24.597656 C 35.132812 24.621094 35.164062 24.664062 35.167969 24.710938 L 35.167969 35.867188 C 35.167969 40.835938 31.144531 44.863281 26.179688 44.867188 Z M 6.863281 36.617188 C 5.808594 34.796875 5.425781 32.664062 5.785156 30.589844 C 5.859375 30.632812 5.984375 30.710938 6.070312 30.757812 L 15.628906 36.277344 C 16.113281 36.5625 16.710938 36.5625 17.199219 36.277344 L 28.859375 29.535156 L 28.859375 34.195312 C 28.863281 34.246094 28.839844 34.292969 28.800781 34.320312 L 19.140625 39.898438 C 14.839844 42.375 9.347656 40.902344 6.863281 36.605469 Z M 4.359375 15.75 C 5.40625 13.925781 7.0625 12.527344 9.039062 11.804688 L 9.039062 23.164062 C 9.035156 23.726562 9.335938 24.246094 9.820312 24.523438 L 21.484375 31.261719 L 17.433594 33.597656 C 17.394531 33.625 17.34375 33.632812 17.296875 33.613281 L 7.640625 28.035156 C 3.34375 25.546875 1.871094 20.050781 4.347656 15.75 Z M 37.53125 23.46875 L 25.867188 16.734375 L 29.902344 14.398438 C 29.941406 14.375 29.992188 14.367188 30.035156 14.386719 L 39.695312 19.964844 C 42.714844 21.710938 44.453125 25.046875 44.15625 28.519531 C 43.859375 31.996094 41.578125 34.988281 38.304688 36.195312 L 38.304688 24.835938 C 38.3125 24.273438 38.011719 23.75 37.523438 23.46875 Z M 41.550781 17.417969 C 41.480469 17.375 41.355469 17.296875 41.269531 17.25 L 31.710938 11.730469 C 31.226562 11.445312 30.625 11.445312 30.140625 11.730469 L 18.476562 18.464844 L 18.476562 13.804688 C 18.476562 13.753906 18.5 13.707031 18.535156 13.679688 L 28.195312 8.101562 C 31.214844 6.359375 34.972656 6.523438 37.832031 8.519531 C 40.691406 10.511719 42.140625 13.984375 41.546875 17.417969 Z M 16.277344 25.730469 L 12.238281 23.402344 C 12.195312 23.378906 12.167969 23.335938 12.160156 23.289062 L 12.160156 12.132812 C 12.15625 8.644531 14.175781 5.46875 17.335938 3.984375 C 20.492188 2.503906 24.222656 2.984375 26.90625 5.21875 C 26.835938 5.257812 26.707031 5.328125 26.617188 5.378906 L 17.0625 10.894531 C 16.574219 11.175781 16.273438 11.695312 16.277344 12.253906 Z M 18.46875 21 L 23.664062 18 L 28.859375 21 L 28.859375 27 L 23.664062 30 L 18.46875 27 Z M 18.46875 21 "/>
</g>
</svg>
