<?xml version="1.0" encoding="UTF-8"?>
<svg xmlns="http://www.w3.org/2000/svg" xmlns:xlink="http://www.w3.org/1999/xlink" width="72px" height="48px" viewBox="0 0 72 48" version="1.1">
<g id="surface1">
<path style=" stroke:none;fill-rule:nonzero;fill:rgb(0%,0%,0%);fill-opacity:1;" d="M 20.464844 17.511719 C 20.464844 18.488281 20.558594 19.277344 20.722656 19.859375 C 20.914062 20.441406 21.148438 21.074219 21.480469 21.757812 C 21.601562 21.96875 21.648438 22.179688 21.648438 22.363281 C 21.648438 22.628906 21.503906 22.890625 21.199219 23.15625 L 19.707031 24.265625 C 19.492188 24.421875 19.277344 24.5 19.089844 24.5 C 18.851562 24.5 18.617188 24.371094 18.378906 24.132812 C 18.046875 23.734375 17.761719 23.3125 17.527344 22.890625 C 17.289062 22.445312 17.050781 21.941406 16.792969 21.335938 C 14.945312 23.761719 12.625 24.976562 9.828125 24.976562 C 7.839844 24.976562 6.253906 24.34375 5.09375 23.078125 C 3.929688 21.8125 3.339844 20.125 3.339844 18.011719 C 3.339844 15.769531 4.050781 13.953125 5.496094 12.582031 C 6.941406 11.207031 8.859375 10.523438 11.296875 10.523438 C 12.101562 10.523438 12.929688 10.601562 13.808594 10.734375 C 14.683594 10.867188 15.585938 11.078125 16.53125 11.3125 L 16.53125 9.390625 C 16.53125 7.382812 16.152344 5.988281 15.417969 5.167969 C 14.660156 4.351562 13.382812 3.957031 11.558594 3.957031 C 10.730469 3.957031 9.875 4.0625 9 4.300781 C 8.125 4.535156 7.269531 4.828125 6.441406 5.195312 C 6.0625 5.378906 5.777344 5.484375 5.613281 5.539062 C 5.449219 5.589844 5.328125 5.617188 5.234375 5.617188 C 4.902344 5.617188 4.738281 5.355469 4.738281 4.800781 L 4.738281 3.507812 C 4.738281 3.085938 4.785156 2.769531 4.902344 2.585938 C 5.019531 2.398438 5.234375 2.214844 5.566406 2.03125 C 6.394531 1.554688 7.390625 1.160156 8.550781 0.84375 C 9.710938 0.5 10.941406 0.34375 12.246094 0.34375 C 15.0625 0.34375 17.125 1.054688 18.449219 2.480469 C 19.753906 3.902344 20.414062 6.066406 20.414062 8.96875 L 20.414062 17.511719 Z M 10.847656 21.519531 C 11.628906 21.519531 12.433594 21.363281 13.285156 21.046875 C 14.140625 20.730469 14.898438 20.148438 15.535156 19.359375 C 15.914062 18.855469 16.199219 18.304688 16.34375 17.671875 C 16.484375 17.039062 16.578125 16.273438 16.578125 15.375 L 16.578125 14.269531 C 15.890625 14.082031 15.15625 13.925781 14.398438 13.820312 C 13.640625 13.714844 12.90625 13.660156 12.171875 13.660156 C 10.585938 13.660156 9.425781 14.003906 8.644531 14.714844 C 7.863281 15.429688 7.484375 16.429688 7.484375 17.75 C 7.484375 18.988281 7.769531 19.910156 8.359375 20.546875 C 8.929688 21.203125 9.757812 21.519531 10.847656 21.519531 Z M 29.867188 24.371094 C 29.441406 24.371094 29.15625 24.289062 28.964844 24.105469 C 28.777344 23.945312 28.609375 23.578125 28.46875 23.078125 L 22.902344 2.691406 C 22.761719 2.164062 22.691406 1.820312 22.691406 1.636719 C 22.691406 1.214844 22.878906 0.976562 23.257812 0.976562 L 25.578125 0.976562 C 26.027344 0.976562 26.335938 1.054688 26.503906 1.238281 C 26.691406 1.398438 26.835938 1.765625 26.976562 2.269531 L 30.957031 19.726562 L 34.648438 2.269531 C 34.769531 1.742188 34.910156 1.398438 35.101562 1.238281 C 35.289062 1.082031 35.621094 0.976562 36.046875 0.976562 L 37.941406 0.976562 C 38.390625 0.976562 38.699219 1.054688 38.890625 1.238281 C 39.078125 1.398438 39.246094 1.765625 39.339844 2.269531 L 43.082031 19.9375 L 47.179688 2.269531 C 47.320312 1.742188 47.488281 1.398438 47.652344 1.238281 C 47.84375 1.082031 48.148438 0.976562 48.578125 0.976562 L 50.777344 0.976562 C 51.15625 0.976562 51.371094 1.1875 51.371094 1.636719 C 51.371094 1.765625 51.347656 1.898438 51.324219 2.058594 C 51.300781 2.214844 51.253906 2.425781 51.15625 2.714844 L 45.449219 23.101562 C 45.308594 23.628906 45.140625 23.972656 44.953125 24.132812 C 44.761719 24.289062 44.457031 24.394531 44.050781 24.394531 L 42.015625 24.394531 C 41.566406 24.394531 41.257812 24.316406 41.070312 24.132812 C 40.878906 23.945312 40.714844 23.605469 40.617188 23.078125 L 36.949219 6.066406 L 33.300781 23.050781 C 33.179688 23.578125 33.039062 23.921875 32.851562 24.105469 C 32.660156 24.289062 32.328125 24.371094 31.902344 24.371094 Z M 60.300781 25.082031 C 59.070312 25.082031 57.835938 24.921875 56.652344 24.605469 C 55.46875 24.289062 54.542969 23.945312 53.929688 23.550781 C 53.550781 23.3125 53.289062 23.050781 53.195312 22.8125 C 53.101562 22.574219 53.050781 22.3125 53.050781 22.074219 L 53.050781 20.730469 C 53.050781 20.175781 53.242188 19.910156 53.597656 19.910156 C 53.738281 19.910156 53.882812 19.9375 54.023438 19.992188 C 54.164062 20.042969 54.378906 20.148438 54.617188 20.253906 C 55.421875 20.652344 56.296875 20.96875 57.222656 21.179688 C 58.167969 21.390625 59.09375 21.496094 60.039062 21.496094 C 61.53125 21.496094 62.691406 21.203125 63.496094 20.625 C 64.300781 20.042969 64.730469 19.199219 64.730469 18.117188 C 64.730469 17.378906 64.515625 16.773438 64.089844 16.273438 C 63.664062 15.769531 62.859375 15.324219 61.699219 14.902344 L 58.261719 13.714844 C 56.535156 13.109375 55.253906 12.210938 54.472656 11.023438 C 53.691406 9.863281 53.289062 8.570312 53.289062 7.199219 C 53.289062 6.09375 53.503906 5.117188 53.929688 4.273438 C 54.355469 3.429688 54.921875 2.691406 55.632812 2.109375 C 56.34375 1.503906 57.148438 1.054688 58.097656 0.738281 C 59.042969 0.421875 60.039062 0.289062 61.082031 0.289062 C 61.601562 0.289062 62.148438 0.316406 62.667969 0.394531 C 63.214844 0.476562 63.710938 0.582031 64.207031 0.6875 C 64.679688 0.816406 65.132812 0.949219 65.558594 1.109375 C 65.984375 1.265625 66.316406 1.425781 66.550781 1.582031 C 66.882812 1.792969 67.121094 2.003906 67.261719 2.242188 C 67.40625 2.453125 67.476562 2.742188 67.476562 3.113281 L 67.476562 4.351562 C 67.476562 4.90625 67.285156 5.195312 66.929688 5.195312 C 66.742188 5.195312 66.433594 5.089844 66.03125 4.878906 C 64.679688 4.195312 63.164062 3.851562 61.484375 3.851562 C 60.132812 3.851562 59.070312 4.089844 58.335938 4.589844 C 57.601562 5.089844 57.222656 5.855469 57.222656 6.9375 C 57.222656 7.675781 57.457031 8.308594 57.929688 8.808594 C 58.40625 9.308594 59.28125 9.8125 60.535156 10.257812 L 63.898438 11.445312 C 65.605469 12.054688 66.835938 12.898438 67.570312 13.976562 C 68.304688 15.058594 68.660156 16.300781 68.660156 17.671875 C 68.660156 18.804688 68.449219 19.832031 68.042969 20.730469 C 67.617188 21.625 67.050781 22.417969 66.316406 23.050781 C 65.582031 23.710938 64.707031 24.183594 63.6875 24.527344 C 62.621094 24.898438 61.507812 25.082031 60.300781 25.082031 Z M 60.300781 25.082031 "/>
<path style=" stroke:none;fill-rule:nonzero;fill:rgb(0%,0%,0%);fill-opacity:1;" d="M 64.777344 37.898438 C 56.984375 44.308594 45.664062 47.710938 35.929688 47.710938 C 22.285156 47.710938 9.996094 42.09375 0.710938 32.757812 C -0.0234375 32.019531 0.640625 31.015625 1.515625 31.59375 C 11.558594 38.082031 23.945312 42.011719 36.757812 42.011719 C 45.402344 42.011719 54.898438 40.007812 63.640625 35.894531 C 64.941406 35.234375 66.054688 36.84375 64.777344 37.898438 Z M 64.777344 37.898438 "/>
<path style=" stroke:none;fill-rule:nonzero;fill:rgb(0%,0%,0%);fill-opacity:1;" d="M 68.019531 33.785156 C 67.027344 32.359375 61.4375 33.097656 58.902344 33.441406 C 58.144531 33.546875 58.027344 32.808594 58.714844 32.253906 C 63.164062 28.773438 70.484375 29.777344 71.335938 30.9375 C 72.191406 32.125 71.101562 40.273438 66.929688 44.175781 C 66.292969 44.78125 65.675781 44.464844 65.960938 43.675781 C 66.90625 41.0625 69.015625 35.183594 68.019531 33.785156 Z M 68.019531 33.785156 "/>
</g>
</svg>
