<?xml version="1.0" encoding="UTF-8"?>
<svg xmlns="http://www.w3.org/2000/svg" xmlns:xlink="http://www.w3.org/1999/xlink" width="72px" height="48px" viewBox="0 0 72 48" version="1.1">
<g id="surface1">
<path style=" stroke:none;fill-rule:nonzero;fill:rgb(100%,100%,100%);fill-opacity:1;" d="M 10.800781 0 L 61.199219 0 C 67.164062 0 72 3.222656 72 7.199219 L 72 40.800781 C 72 44.777344 67.164062 48 61.199219 48 L 10.800781 48 C 4.835938 48 0 44.777344 0 40.800781 L 0 7.199219 C 0 3.222656 4.835938 0 10.800781 0 Z M 10.800781 0 "/>
<path style=" stroke:none;fill-rule:nonzero;fill:rgb(95.294118%,50.196081%,12.54902%);fill-opacity:1;" d="M 46.546875 30.5625 C 48.09375 28.125 45.984375 27 43.875 27 L 23.0625 26.8125 C 22.5 26.8125 22.5 26.25 23.203125 26.15625 L 44.296875 25.96875 C 46.6875 25.875 49.5 24.5625 50.34375 22.875 C 50.34375 22.875 51.75 20.90625 51.609375 20.625 C 50.359375 16.597656 45.210938 13.632812 39.054688 13.390625 C 32.898438 13.152344 27.261719 15.695312 25.3125 19.59375 C 19.96875 17.25 14.34375 20.4375 15.609375 23.90625 C 8.859375 24.1875 6.46875 28.21875 7.171875 30.65625 C 7.171875 30.75 7.3125 30.84375 7.59375 30.84375 L 46.125 30.84375 C 46.265625 30.84375 46.546875 30.75 46.546875 30.5625 Z M 46.546875 30.5625 "/>
<path style=" stroke:none;fill-rule:nonzero;fill:rgb(98.039216%,68.235296%,25.098041%);fill-opacity:1;" d="M 53.578125 21 C 53.015625 21 52.734375 20.90625 52.59375 21.09375 L 51.890625 23.0625 C 51.1875 24.5625 52.3125 25.875 54.703125 25.96875 L 59.203125 26.15625 C 59.765625 26.15625 59.765625 26.71875 59.0625 26.8125 L 54.421875 26.90625 C 49.359375 27.28125 47.953125 30.5625 47.953125 30.5625 C 47.953125 30.75 47.953125 30.84375 48.234375 30.84375 L 64.125 30.84375 L 64.546875 30.65625 C 65.515625 28.367188 64.820312 25.90625 62.664062 24.007812 C 60.511719 22.113281 57.148438 21 53.578125 21 "/>
</g>
</svg>
