<?xml version="1.0" encoding="UTF-8"?>
<svg xmlns="http://www.w3.org/2000/svg" xmlns:xlink="http://www.w3.org/1999/xlink" width="72px" height="48px" viewBox="0 0 72 48" version="1.1">
<g id="surface1">
<path style=" stroke:none;fill-rule:nonzero;fill:rgb(0%,50.196081%,100%);fill-opacity:1;" d="M 35.945312 25.859375 L 35.945312 32.035156 C 47.722656 32.035156 56.890625 21.921875 53.039062 10.953125 C 51.355469 6.15625 47.070312 2.347656 41.679688 0.851562 C 29.335938 -2.574219 17.960938 5.578125 17.960938 16.046875 L 24.921875 16.046875 C 24.925781 16.046875 24.925781 16.046875 24.925781 16.046875 C 24.925781 9.476562 32.242188 4.394531 40.011719 6.902344 C 42.890625 7.832031 45.1875 9.871094 46.230469 12.429688 C 49.050781 19.332031 43.347656 25.832031 35.960938 25.84375 L 35.960938 19.6875 C 35.960938 19.6875 35.960938 19.683594 35.960938 19.683594 L 29.015625 19.683594 C 29.015625 19.683594 29.015625 19.6875 29.015625 19.6875 L 29.015625 25.859375 Z M 29.015625 30.601562 L 23.679688 30.601562 L 23.679688 25.859375 L 29.015625 25.859375 Z M 23.683594 25.859375 L 19.210938 25.859375 C 19.210938 25.859375 19.207031 25.855469 19.207031 25.855469 L 19.207031 21.882812 C 19.207031 21.882812 19.210938 21.878906 19.210938 21.878906 L 23.679688 21.878906 C 23.679688 21.878906 23.683594 21.882812 23.683594 21.882812 Z M 23.683594 25.859375 "/>
<path style=" stroke:none;fill-rule:nonzero;fill:rgb(0%,50.196081%,100%);fill-opacity:1;" d="M 6.214844 38.300781 C 5.308594 37.742188 4.183594 37.457031 2.867188 37.457031 L 0 37.457031 L 0 45.539062 L 2.867188 45.539062 C 4.179688 45.539062 5.304688 45.242188 6.214844 44.652344 C 6.710938 44.339844 7.097656 43.90625 7.371094 43.355469 C 7.640625 42.8125 7.777344 42.167969 7.777344 41.445312 C 7.777344 40.734375 7.640625 40.097656 7.371094 39.5625 C 7.097656 39.019531 6.710938 38.597656 6.214844 38.300781 Z M 1.675781 38.824219 L 2.574219 38.824219 C 3.574219 38.824219 4.398438 39 5.023438 39.34375 C 5.714844 39.714844 6.066406 40.421875 6.066406 41.445312 C 6.066406 42.5 5.714844 43.238281 5.019531 43.644531 C 4.421875 43.996094 3.601562 44.175781 2.585938 44.175781 L 1.675781 44.175781 Z M 8.953125 45.539062 L 10.566406 45.539062 L 10.566406 39.847656 L 8.953125 39.847656 Z M 9.773438 37.359375 C 9.5 37.359375 9.261719 37.445312 9.070312 37.617188 C 8.878906 37.777344 8.777344 37.988281 8.777344 38.230469 C 8.777344 38.476562 8.875 38.6875 9.070312 38.859375 C 9.261719 39.03125 9.5 39.117188 9.773438 39.117188 C 10.050781 39.117188 10.285156 39.03125 10.480469 38.859375 C 10.671875 38.6875 10.769531 38.476562 10.769531 38.230469 C 10.769531 37.988281 10.671875 37.78125 10.480469 37.617188 C 10.285156 37.445312 10.050781 37.359375 9.773438 37.359375 Z M 16.417969 40.324219 C 15.929688 39.9375 15.386719 39.714844 14.800781 39.714844 C 13.914062 39.714844 13.171875 39.988281 12.605469 40.527344 C 12.027344 41.0625 11.738281 41.75 11.738281 42.574219 C 11.738281 43.375 12.023438 44.0625 12.59375 44.613281 C 13.164062 45.144531 13.90625 45.414062 14.800781 45.414062 C 15.421875 45.414062 15.957031 45.257812 16.390625 44.957031 L 16.390625 45.085938 C 16.390625 45.558594 16.25 45.925781 15.96875 46.179688 C 15.6875 46.429688 15.300781 46.558594 14.8125 46.558594 C 14.070312 46.558594 13.605469 46.296875 13.035156 45.617188 L 11.9375 46.554688 L 11.96875 46.589844 C 12.207031 46.886719 12.570312 47.175781 13.046875 47.449219 C 13.527344 47.726562 14.128906 47.863281 14.839844 47.863281 C 15.796875 47.863281 16.570312 47.601562 17.140625 47.085938 C 17.710938 46.566406 18.003906 45.871094 18.003906 45.015625 L 18.003906 39.847656 L 16.417969 39.847656 Z M 15.996094 43.683594 C 15.710938 43.96875 15.351562 44.109375 14.890625 44.109375 C 14.425781 44.109375 14.066406 43.96875 13.789062 43.6875 C 13.511719 43.402344 13.371094 43.027344 13.371094 42.574219 C 13.371094 42.109375 13.511719 41.730469 13.789062 41.445312 C 14.0625 41.164062 14.433594 41.019531 14.890625 41.019531 C 15.351562 41.019531 15.710938 41.160156 15.992188 41.445312 C 16.273438 41.730469 16.417969 42.109375 16.417969 42.574219 C 16.417969 43.027344 16.273438 43.402344 15.996094 43.683594 Z M 19.382812 45.539062 L 20.992188 45.539062 L 20.992188 39.847656 L 19.382812 39.847656 Z M 20.203125 37.359375 C 19.929688 37.359375 19.691406 37.445312 19.5 37.617188 C 19.304688 37.777344 19.207031 37.988281 19.207031 38.230469 C 19.207031 38.476562 19.304688 38.6875 19.5 38.859375 C 19.691406 39.03125 19.929688 39.117188 20.203125 39.117188 C 20.480469 39.117188 20.714844 39.03125 20.910156 38.859375 C 21.101562 38.6875 21.199219 38.476562 21.199219 38.230469 C 21.199219 37.988281 21.101562 37.78125 20.910156 37.617188 C 20.714844 37.445312 20.480469 37.359375 20.203125 37.359375 Z M 24.527344 38.308594 L 22.941406 38.308594 L 22.941406 39.847656 L 22.019531 39.847656 L 22.019531 41.152344 L 22.941406 41.152344 L 22.941406 43.519531 C 22.941406 44.257812 23.105469 44.789062 23.433594 45.089844 C 23.761719 45.398438 24.347656 45.550781 25.171875 45.550781 C 25.433594 45.550781 25.695312 45.542969 25.953125 45.527344 L 26.027344 45.523438 L 26.027344 44.21875 L 25.472656 44.246094 C 25.089844 44.246094 24.832031 44.1875 24.710938 44.066406 C 24.589844 43.949219 24.527344 43.695312 24.527344 43.316406 L 24.527344 41.152344 L 26.027344 41.152344 L 26.027344 39.847656 L 24.527344 39.847656 Z M 31.558594 40.273438 L 31.554688 40.273438 C 31.066406 39.902344 30.394531 39.714844 29.550781 39.714844 C 29.015625 39.714844 28.511719 39.820312 28.058594 40.023438 C 27.640625 40.214844 27.226562 40.527344 26.964844 40.9375 L 26.980469 40.953125 L 28.015625 41.832031 C 28.4375 41.230469 28.910156 41.019531 29.539062 41.019531 C 29.875 41.019531 30.15625 41.101562 30.367188 41.257812 C 30.582031 41.417969 30.6875 41.617188 30.6875 41.871094 L 30.6875 42.144531 C 30.289062 42.039062 29.886719 41.984375 29.5 41.984375 C 28.699219 41.984375 28.046875 42.152344 27.5625 42.480469 C 27.070312 42.816406 26.820312 43.296875 26.820312 43.90625 C 26.820312 44.441406 27.03125 44.875 27.445312 45.199219 C 27.867188 45.507812 28.390625 45.667969 29.003906 45.667969 C 29.617188 45.667969 30.191406 45.449219 30.710938 45.070312 L 30.710938 45.539062 L 32.296875 45.539062 L 32.296875 41.878906 C 32.296875 41.1875 32.046875 40.648438 31.558594 40.273438 Z M 28.695312 43.363281 C 28.878906 43.25 29.136719 43.195312 29.464844 43.195312 C 29.851562 43.195312 30.261719 43.265625 30.6875 43.402344 L 30.6875 43.957031 C 30.335938 44.25 29.867188 44.394531 29.296875 44.394531 C 29.015625 44.394531 28.800781 44.339844 28.652344 44.230469 C 28.503906 44.125 28.433594 43.988281 28.433594 43.816406 C 28.433594 43.621094 28.519531 43.472656 28.695312 43.363281 Z M 33.582031 45.539062 L 35.195312 45.539062 L 35.195312 37.457031 L 33.582031 37.457031 Z M 41.039062 45.660156 C 38.457031 45.660156 36.351562 43.792969 36.351562 41.496094 C 36.351562 39.199219 38.457031 37.328125 41.039062 37.328125 C 43.625 37.328125 45.726562 39.199219 45.726562 41.496094 C 45.726562 43.792969 43.625 45.660156 41.039062 45.660156 Z M 41.039062 38.796875 C 39.367188 38.796875 38.003906 40.007812 38.003906 41.496094 C 38.003906 42.984375 39.367188 44.195312 41.039062 44.195312 C 42.714844 44.195312 44.074219 42.984375 44.074219 41.496094 C 44.074219 40.007812 42.714844 38.796875 41.039062 38.796875 Z M 51.472656 43.503906 C 51.1875 43.792969 50.890625 44.039062 50.664062 44.171875 C 50.441406 44.296875 50.160156 44.363281 49.828125 44.363281 C 49.351562 44.363281 48.972656 44.207031 48.660156 43.890625 C 48.351562 43.578125 48.195312 43.171875 48.195312 42.6875 C 48.195312 42.203125 48.347656 41.800781 48.65625 41.488281 C 48.960938 41.171875 49.339844 41.019531 49.816406 41.019531 C 50.335938 41.019531 50.882812 41.308594 51.351562 41.800781 L 52.414062 40.890625 C 51.722656 40.089844 50.835938 39.714844 49.777344 39.714844 C 48.894531 39.714844 48.125 40 47.5 40.566406 C 46.875 41.125 46.558594 41.839844 46.558594 42.6875 C 46.558594 43.535156 46.875 44.25 47.496094 44.816406 C 48.121094 45.382812 48.890625 45.667969 49.777344 45.667969 C 50.945312 45.667969 51.886719 45.21875 52.523438 44.398438 Z M 58.089844 40.644531 C 57.859375 40.359375 57.546875 40.132812 57.164062 39.964844 C 56.777344 39.800781 56.332031 39.714844 55.832031 39.714844 C 54.933594 39.714844 54.195312 40.011719 53.644531 40.59375 C 53.105469 41.171875 52.835938 41.886719 52.835938 42.726562 C 52.835938 43.589844 53.132812 44.304688 53.722656 44.847656 C 54.304688 45.390625 55.089844 45.667969 56.050781 45.667969 C 57.136719 45.667969 58.027344 45.277344 58.699219 44.507812 L 58.734375 44.464844 L 57.683594 43.566406 C 57.585938 43.671875 57.449219 43.789062 57.324219 43.894531 C 57.164062 44.027344 57.015625 44.132812 56.855469 44.203125 C 56.613281 44.308594 56.34375 44.363281 56.042969 44.363281 C 55.59375 44.363281 55.226562 44.246094 54.941406 44.015625 C 54.679688 43.800781 54.523438 43.507812 54.480469 43.152344 L 58.75 43.152344 L 58.765625 42.628906 C 58.765625 42.257812 58.710938 41.902344 58.597656 41.566406 C 58.484375 41.234375 58.3125 40.921875 58.089844 40.644531 Z M 54.566406 41.984375 C 54.644531 41.710938 54.785156 41.484375 54.988281 41.308594 C 55.207031 41.117188 55.488281 41.019531 55.832031 41.019531 C 56.222656 41.019531 56.523438 41.117188 56.730469 41.3125 C 56.921875 41.496094 57.027344 41.71875 57.050781 41.984375 Z M 64.277344 40.273438 C 63.789062 39.902344 63.113281 39.714844 62.269531 39.714844 C 61.734375 39.714844 61.234375 39.820312 60.777344 40.023438 C 60.359375 40.214844 59.949219 40.527344 59.6875 40.9375 L 59.703125 40.953125 L 60.734375 41.832031 C 61.160156 41.230469 61.632812 41.019531 62.257812 41.019531 C 62.59375 41.019531 62.875 41.101562 63.089844 41.257812 C 63.300781 41.417969 63.40625 41.617188 63.40625 41.871094 L 63.40625 42.144531 C 63.007812 42.039062 62.609375 41.984375 62.21875 41.984375 C 61.417969 41.984375 60.765625 42.152344 60.28125 42.480469 C 59.789062 42.816406 59.542969 43.296875 59.542969 43.90625 C 59.542969 44.441406 59.75 44.875 60.167969 45.199219 C 60.585938 45.507812 61.109375 45.667969 61.722656 45.667969 C 62.335938 45.667969 62.910156 45.449219 63.429688 45.070312 L 63.429688 45.539062 L 65.019531 45.539062 L 65.019531 41.878906 C 65.019531 41.1875 64.769531 40.648438 64.277344 40.273438 Z M 61.414062 43.363281 C 61.597656 43.25 61.855469 43.195312 62.183594 43.195312 C 62.570312 43.195312 62.984375 43.265625 63.40625 43.402344 L 63.40625 43.957031 C 63.054688 44.25 62.589844 44.394531 62.015625 44.394531 C 61.738281 44.394531 61.519531 44.339844 61.371094 44.230469 C 61.222656 44.125 61.152344 43.988281 61.152344 43.816406 C 61.152344 43.621094 61.238281 43.472656 61.414062 43.363281 Z M 71.21875 40.386719 C 70.769531 39.941406 70.136719 39.714844 69.34375 39.714844 C 68.703125 39.714844 68.183594 39.878906 67.796875 40.199219 L 67.796875 39.847656 L 66.214844 39.847656 L 66.214844 45.539062 L 67.828125 45.539062 L 67.828125 42.402344 C 67.828125 41.96875 67.941406 41.628906 68.171875 41.382812 C 68.398438 41.140625 68.710938 41.019531 69.125 41.019531 C 69.488281 41.019531 69.765625 41.125 69.96875 41.34375 C 70.175781 41.5625 70.28125 41.863281 70.28125 42.242188 L 70.28125 45.539062 L 71.890625 45.539062 L 71.890625 42.242188 C 71.890625 41.453125 71.664062 40.828125 71.21875 40.386719 Z M 71.21875 40.386719 "/>
</g>
</svg>
