<?xml version="1.0" encoding="UTF-8"?>
<svg xmlns="http://www.w3.org/2000/svg" xmlns:xlink="http://www.w3.org/1999/xlink" width="72px" height="48px" viewBox="0 0 72 48" version="1.1">
<g id="surface1">
<path style=" stroke:none;fill-rule:evenodd;fill:rgb(8.627451%,8.235294%,7.843138%);fill-opacity:1;" d="M 36 3 C 18.597656 3 4.5 12.390625 4.5 23.980469 C 4.5 33.25 13.527344 41.109375 26.042969 43.882812 C 27.617188 44.074219 28.191406 43.429688 28.191406 42.871094 C 28.191406 42.375 28.164062 41.054688 28.148438 39.304688 C 19.386719 40.570312 17.539062 36.492188 17.539062 36.492188 C 16.105469 34.066406 14.039062 33.421875 14.039062 33.421875 C 11.183594 32.121094 14.257812 32.148438 14.257812 32.148438 C 17.417969 32.296875 19.085938 34.308594 19.085938 34.308594 C 21.890625 37.519531 26.457031 36.589844 28.25 36.054688 C 28.535156 34.699219 29.347656 33.773438 30.25 33.25 C 23.257812 32.722656 15.902344 30.921875 15.902344 22.882812 C 15.902344 20.59375 17.132812 18.71875 19.144531 17.253906 C 18.820312 16.722656 17.738281 14.589844 19.457031 11.703125 C 19.457031 11.703125 22.09375 11.136719 28.117188 13.851562 C 30.6875 13.382812 33.335938 13.144531 36 13.144531 C 38.675781 13.152344 41.371094 13.382812 43.886719 13.851562 C 49.902344 11.136719 52.542969 11.699219 52.542969 11.699219 C 54.261719 14.589844 53.179688 16.722656 52.855469 17.25 C 54.871094 18.71875 56.097656 20.59375 56.097656 22.882812 C 56.097656 30.9375 48.726562 32.714844 41.710938 33.230469 C 42.839844 33.878906 43.847656 35.160156 43.847656 37.117188 C 43.847656 39.921875 43.808594 42.183594 43.808594 42.871094 C 43.808594 43.433594 44.378906 44.085938 45.976562 43.882812 C 58.824219 41.023438 67.496094 33.007812 67.5 23.980469 C 67.488281 12.386719 53.386719 2.996094 36 3 Z M 36 3 "/>
</g>
</svg>
