<?xml version="1.0" encoding="UTF-8"?>
<svg xmlns="http://www.w3.org/2000/svg" xmlns:xlink="http://www.w3.org/1999/xlink" width="72px" height="48px" viewBox="0 0 72 48" version="1.1">
<g id="surface1">
<path style=" stroke:none;fill-rule:nonzero;fill:rgb(0%,0%,0%);fill-opacity:1;" d="M 51.347656 18.695312 C 50.285156 18.695312 49.53125 19.675781 49.160156 21.53125 L 48.960938 22.539062 L 48.960938 19.179688 L 47.234375 19.179688 L 47.234375 39.601562 L 49.046875 39.601562 L 49.046875 27.453125 C 49.046875 24.546875 49.632812 22.882812 50.644531 22.882812 C 51.613281 22.882812 52.167969 24.503906 52.167969 27.332031 L 52.167969 39.601562 L 53.984375 39.601562 L 53.984375 26.453125 C 53.984375 21.589844 52.996094 18.695312 51.347656 18.695312 Z M 42.546875 18.695312 C 40.40625 18.695312 39.082031 22.3125 39.082031 28.136719 L 39.082031 31.003906 C 39.082031 36.605469 40.421875 40.085938 42.582031 40.085938 C 44.027344 40.085938 45.039062 38.652344 45.675781 35.703125 L 44.550781 33.949219 C 44.082031 35.652344 43.328125 36.703125 42.582031 36.703125 C 41.488281 36.703125 40.835938 34.875 40.835938 31.8125 L 40.835938 31 L 45.902344 31 L 45.902344 27.613281 C 45.902344 22.1875 44.585938 18.695312 42.550781 18.695312 Z M 44.25 27.699219 L 40.832031 27.699219 L 40.832031 27.210938 C 40.832031 23.847656 41.441406 21.992188 42.546875 21.992188 C 43.613281 21.992188 44.25 23.820312 44.25 26.882812 Z M 72 15.816406 L 72 11.910156 L 65.726562 11.910156 L 65.726562 15.816406 L 67.925781 15.816406 L 67.925781 35.6875 L 65.726562 35.6875 L 65.726562 39.59375 L 72 39.59375 L 72 35.6875 L 69.800781 35.6875 L 69.800781 15.816406 Z M 24.417969 11.347656 C 21.617188 11.347656 19.871094 16.078125 19.871094 23.695312 L 19.871094 27.816406 C 19.871094 35.433594 21.613281 40.167969 24.417969 40.167969 C 27.222656 40.167969 28.964844 35.433594 28.964844 27.816406 L 28.964844 23.695312 C 28.960938 16.070312 27.21875 11.347656 24.417969 11.347656 Z M 27.089844 28.097656 C 27.089844 33.15625 26.113281 36.058594 24.417969 36.058594 C 22.722656 36.058594 21.75 33.15625 21.75 28.097656 L 21.75 23.414062 C 21.75 18.355469 22.722656 15.453125 24.417969 15.453125 C 26.113281 15.453125 27.089844 18.355469 27.089844 23.414062 Z M 34.660156 18.695312 C 33.710938 18.695312 32.886719 19.761719 32.453125 21.550781 L 32.261719 22.367188 L 32.261719 19.179688 L 30.535156 19.179688 L 30.535156 46.628906 L 32.347656 46.628906 L 32.347656 36.6875 L 32.542969 37.464844 C 32.953125 39.105469 33.75 40.085938 34.675781 40.085938 C 36.242188 40.085938 37.820312 37.316406 37.820312 31.125 L 37.820312 27.652344 C 37.820312 23.195312 36.847656 18.695312 34.660156 18.695312 Z M 36.003906 30.886719 C 36.003906 34.175781 35.296875 36.222656 34.15625 36.222656 C 33.09375 36.222656 32.351562 34.0625 32.351562 30.96875 L 32.351562 27.894531 C 32.351562 24.765625 33.097656 22.5625 34.171875 22.5625 C 35.304688 22.5625 36.007812 24.605469 36.007812 27.894531 Z M 58.996094 11.914062 L 55.335938 39.601562 L 57.179688 39.601562 L 57.878906 33.667969 L 62.089844 33.667969 L 62.097656 33.726562 L 62.789062 39.601562 L 64.632812 39.601562 L 60.964844 11.910156 Z M 58.332031 29.761719 L 59.980469 15.761719 L 61.617188 29.761719 Z M 58.332031 29.761719 "/>
<path style=" stroke:none;fill-rule:nonzero;fill:rgb(0%,0%,0%);fill-opacity:1;" d="M 16.324219 19.640625 C 16.726562 16.375 16.589844 12.796875 15.945312 9.824219 C 14.976562 5.269531 13.035156 2.925781 11.136719 4.023438 C 10.292969 1.445312 9.082031 -0.0195312 7.808594 0 C 5.867188 -0.0117188 4.148438 3.375 3.550781 8.378906 C 2.304688 9.070312 1.230469 11.183594 0.601562 14.175781 C -0.371094 18.726562 -0.148438 24.453125 1.152344 28.355469 C 0.75 31.621094 0.890625 35.195312 1.53125 38.164062 C 2.496094 42.726562 4.441406 45.078125 6.339844 43.976562 C 7.183594 46.550781 8.394531 48.015625 9.667969 48 C 11.605469 48.011719 13.328125 44.625 13.925781 39.621094 C 15.167969 38.929688 16.242188 36.816406 16.871094 33.824219 C 17.847656 29.277344 17.625 23.542969 16.324219 19.640625 Z M 9.667969 44.867188 C 8.890625 44.871094 8.136719 44.132812 7.542969 42.78125 C 7.566406 42.742188 7.617188 42.671875 7.648438 42.621094 L 11.175781 37.105469 C 11.355469 36.824219 11.46875 36.304688 11.464844 35.746094 L 11.464844 22.269531 L 12.957031 24.597656 C 12.972656 24.621094 12.984375 24.664062 12.984375 24.710938 L 12.984375 35.867188 C 12.984375 40.835938 11.5 44.863281 9.667969 44.867188 Z M 2.535156 36.617188 C 2.144531 34.796875 2.003906 32.664062 2.136719 30.589844 C 2.164062 30.632812 2.210938 30.710938 2.242188 30.757812 L 5.769531 36.277344 C 5.949219 36.5625 6.171875 36.5625 6.351562 36.277344 L 10.65625 29.535156 L 10.65625 34.195312 C 10.65625 34.246094 10.648438 34.292969 10.632812 34.320312 L 7.066406 39.898438 C 5.480469 42.375 3.453125 40.902344 2.535156 36.605469 Z M 1.609375 15.75 C 1.996094 13.925781 2.609375 12.527344 3.335938 11.804688 L 3.335938 23.164062 C 3.335938 23.726562 3.445312 24.246094 3.625 24.523438 L 7.933594 31.261719 L 6.4375 33.597656 C 6.421875 33.625 6.402344 33.632812 6.386719 33.613281 L 2.820312 28.035156 C 1.234375 25.546875 0.691406 20.050781 1.605469 15.75 Z M 13.859375 23.46875 L 9.550781 16.734375 L 11.039062 14.398438 C 11.054688 14.375 11.074219 14.367188 11.089844 14.386719 L 14.65625 19.964844 C 15.773438 21.710938 16.414062 25.046875 16.304688 28.519531 C 16.195312 31.996094 15.351562 34.988281 14.144531 36.195312 L 14.144531 24.835938 C 14.144531 24.273438 14.035156 23.75 13.855469 23.46875 Z M 15.34375 17.417969 C 15.316406 17.375 15.269531 17.296875 15.238281 17.25 L 11.707031 11.730469 C 11.53125 11.445312 11.308594 11.445312 11.128906 11.730469 L 6.824219 18.464844 L 6.824219 13.804688 C 6.820312 13.753906 6.832031 13.707031 6.84375 13.679688 L 10.410156 8.101562 C 11.527344 6.359375 12.914062 6.523438 13.96875 8.519531 C 15.023438 10.511719 15.558594 13.984375 15.339844 17.417969 Z M 6.011719 25.730469 L 4.519531 23.402344 C 4.503906 23.378906 4.492188 23.335938 4.488281 23.289062 L 4.488281 12.132812 C 4.488281 8.644531 5.234375 5.46875 6.398438 3.984375 C 7.566406 2.503906 8.945312 2.984375 9.933594 5.21875 C 9.90625 5.257812 9.859375 5.328125 9.828125 5.378906 L 6.300781 10.894531 C 6.121094 11.175781 6.007812 11.695312 6.011719 12.253906 Z M 6.820312 21 L 8.738281 18 L 10.65625 21 L 10.65625 27 L 8.738281 30 L 6.820312 27 Z M 6.820312 21 "/>
</g>
</svg>
